<mxfile host="Electron" agent="Mozilla/5.0 (Windows NT 10.0; Win64; x64) AppleWebKit/537.36 (KHTML, like Gecko) draw.io/24.7.5 Chrome/126.0.6478.183 Electron/31.3.0 Safari/537.36" version="24.7.5">
  <diagram name="Page-1" id="sH-aKWooooJHjwbjUD3K">
    <mxGraphModel dx="2944" dy="1886" grid="1" gridSize="10" guides="1" tooltips="1" connect="1" arrows="1" fold="1" page="1" pageScale="1" pageWidth="827" pageHeight="1169" math="0" shadow="0">
      <root>
        <mxCell id="0" />
        <mxCell id="1" parent="0" />
        <mxCell id="jvcADhcVPLt3B4X78LWL-1" value="Diagramme de déploiement" style="shape=umlFrame;whiteSpace=wrap;html=1;pointerEvents=0;recursiveResize=0;container=1;collapsible=0;width=190;height=30;fillColor=#FFF4C3;" parent="1" vertex="1">
          <mxGeometry x="-1320" y="-10" width="1220" height="750" as="geometry" />
        </mxCell>
        <mxCell id="yi7BQN3zshPx02qinX9N-79" value="" style="rounded=0;whiteSpace=wrap;html=1;fillColor=#CCFFFF;" parent="jvcADhcVPLt3B4X78LWL-1" vertex="1">
          <mxGeometry x="40.00000000000001" y="60" width="1091.99" height="640" as="geometry" />
        </mxCell>
        <mxCell id="yi7BQN3zshPx02qinX9N-76" value="" style="rounded=0;whiteSpace=wrap;html=1;fillColor=#B5FFD8;" parent="jvcADhcVPLt3B4X78LWL-1" vertex="1">
          <mxGeometry x="700" y="90" width="383.99" height="460" as="geometry" />
        </mxCell>
        <mxCell id="yi7BQN3zshPx02qinX9N-70" value="" style="rounded=0;whiteSpace=wrap;html=1;fillColor=#B5FFD8;" parent="jvcADhcVPLt3B4X78LWL-1" vertex="1">
          <mxGeometry x="60.00000000000001" y="91.96000000000001" width="565.25" height="512.6" as="geometry" />
        </mxCell>
        <mxCell id="jvcADhcVPLt3B4X78LWL-45" value="&lt;span style=&quot;font-size: 15px;&quot;&gt;&lt;b&gt;Serveur&lt;/b&gt;&lt;/span&gt;" style="verticalAlign=top;align=center;spacingTop=8;spacingLeft=2;spacingRight=12;shape=cube;size=10;direction=south;fontStyle=4;html=1;whiteSpace=wrap;fillColor=#54AFFF;strokeColor=#00ff00;" parent="jvcADhcVPLt3B4X78LWL-1" vertex="1">
          <mxGeometry x="404.75" y="103.26" width="200" height="256.74" as="geometry" />
        </mxCell>
        <mxCell id="FaoGSX9svCNC1m7Fcghs-3" value="&lt;p style=&quot;line-height: 120%;&quot;&gt;&lt;br&gt;&lt;/p&gt;" style="html=1;whiteSpace=wrap;fontStyle=1;align=center;fontSize=12;fillColor=default;strokeColor=#00ff00;" parent="jvcADhcVPLt3B4X78LWL-1" vertex="1">
          <mxGeometry x="417.41" y="207.13" width="157.34" height="82.87" as="geometry" />
        </mxCell>
        <mxCell id="jvcADhcVPLt3B4X78LWL-24" value="&lt;font style=&quot;font-size: 14px;&quot;&gt;&lt;b&gt;&lt;font style=&quot;&quot;&gt;&lt;font style=&quot;vertical-align: inherit;&quot;&gt;&lt;font style=&quot;vertical-align: inherit;&quot;&gt;Micro-controller Arduino&lt;/font&gt;&lt;/font&gt;&lt;/font&gt;&lt;/b&gt;&lt;/font&gt;" style="verticalAlign=top;align=center;spacingTop=8;spacingLeft=2;spacingRight=12;shape=cube;size=10;direction=south;fontStyle=4;html=1;whiteSpace=wrap;fillColor=#54AFFF;strokeColor=#00ff00;" parent="jvcADhcVPLt3B4X78LWL-1" vertex="1">
          <mxGeometry x="134.75" y="126.98000000000002" width="260" height="283.25" as="geometry" />
        </mxCell>
        <mxCell id="jvcADhcVPLt3B4X78LWL-25" value="&lt;font style=&quot;vertical-align: inherit;&quot;&gt;&lt;font style=&quot;vertical-align: inherit;&quot;&gt;Capteur Température&lt;/font&gt;&lt;/font&gt;" style="verticalAlign=top;align=center;spacingTop=8;spacingLeft=2;spacingRight=12;shape=cube;size=10;direction=south;fontStyle=5;html=1;whiteSpace=wrap;strokeColor=#00ff00;" parent="jvcADhcVPLt3B4X78LWL-1" vertex="1">
          <mxGeometry x="154.75" y="175.98" width="221" height="94.02" as="geometry" />
        </mxCell>
        <mxCell id="jvcADhcVPLt3B4X78LWL-46" value="&lt;font style=&quot;font-size: 11px;&quot;&gt;Proxmox&lt;/font&gt;" style="html=1;whiteSpace=wrap;fontStyle=1;align=left;strokeColor=#00ff00;" parent="jvcADhcVPLt3B4X78LWL-1" vertex="1">
          <mxGeometry x="448.4000000000001" y="157.13" width="112.67" height="40" as="geometry" />
        </mxCell>
        <mxCell id="jvcADhcVPLt3B4X78LWL-47" value="" style="shape=image;verticalLabelPosition=bottom;labelBackgroundColor=default;verticalAlign=top;aspect=fixed;imageAspect=0;image=data:image/png,iVBORw0KGgoAAAANSUhEUgAAAEQAAAA8CAYAAADfYhweAAAMP2lDQ1BJQ0MgUHJvZmlsZQAASImVVwdYU8kWnltSIbQAAlJCb4KIlABSQmihdwRRCUmAUGIMBBU7uqjg2sUCNnRVRMEKiAVF7CyKvS8WFJR1sWBX3qSArvvK9+b75s5//znznzPnztx7BwD1E1yxOBfVACBPVCCJDfZnjE1OYZC6AQmQAQUYAJzLyxezoqPDASyD7d/LuxsAkbVXHWRa/+z/r0WTL8jnAYBEQ5zOz+flQXwQALySJ5YUAECU8eZTCsQyDCvQlsAAIV4ow5kKXCnD6Qq8V24TH8uGuBUAsiqXK8kEQO0y5BmFvEyoodYHsZOILxQBoM6A2CcvbxIf4jSIbaCNGGKZPjP9B53Mv2mmD2lyuZlDWDEXeSEHCPPFudxp/2c6/nfJy5UO+rCCVTVLEhIrmzPM262cSWEyrApxryg9MgpiLYg/CPlye4hRapY0JEFhjxry8tkwZ0AXYic+NyAMYkOIg0S5keFKPj1DGMSBGK4QdKqwgBMPsR7ECwX5gXFKm82SSbFKX2h9hoTNUvLnuBK5X5mvB9KcBJZS/3WWgKPUx9SKsuKTIKZCbFEoTIyEWA1ix/ycuDClzZiiLHbkoI1EGiuL3wLiWIEo2F+hjxVmSIJilfalefmD88U2Zwk5kUq8vyArPkSRH6yVx5XHD+eCXRaIWAmDOoL8seGDc+ELAgIVc8e6BaKEOKXOB3GBf6xiLE4V50Yr7XEzQW6wjDeD2CW/ME45Fk8sgAtSoY9niAui4xVx4kXZ3NBoRTz4MhAO2CAAMIAU1nQwCWQDYXtvQy+8U/QEAS6QgEwgAA5KZnBEkrxHBK9xoAj8CZEA5A+N85f3CkAh5L8OsYqrA8iQ9xbKR+SApxDngTCQC++l8lGiIW+J4AlkhP/wzoWVB+PNhVXW/+/5QfY7w4JMuJKRDnpkqA9aEgOJAcQQYhDRFjfAfXAvPBxe/WB1xpm4x+A8vtsTnhI6CI8I1wmdhNsThcWSn6KMAJ1QP0iZi/Qfc4FbQU1X3B/3hupQGdfFDYAD7gL9sHBf6NkVsmxl3LKsMH7S/tsMfngaSjuKEwWlDKP4UWx+Hqlmp+Y6pCLL9Y/5UcSaPpRv9lDPz/7ZP2SfD9uwny2xhdgB7Cx2EjuPHcUaAANrxhqxNuyYDA+trify1TXoLVYeTw7UEf7D3+CTlWUy36nGqcfpi6KvQDBV9o4G7EniaRJhZlYBgwW/CAIGR8RzHMFwdnJ2AUD2fVG8vt7EyL8biG7bd27eHwB4Nw8MDBz5zoU2A7DPHW7/w985Gyb8dKgAcO4wTyopVHC47EKAbwl1uNP0gTEwBzZwPs7ADXgBPxAIQkEUiAfJYAKMPguucwmYAmaAuaAElIFlYDVYDzaBrWAn2AP2gwZwFJwEZ8BFcBlcB3fh6ukCL0AfeAc+IwhCQmgIHdFHTBBLxB5xRpiIDxKIhCOxSDKShmQiIkSKzEDmIWXICmQ9sgWpRvYhh5GTyHmkA7mNPER6kNfIJxRDVVFt1Ai1QkeiTJSFhqHx6Hg0E52MFqHz0SXoWrQK3Y3WoyfRi+h1tBN9gfZjAFPBdDFTzAFjYmwsCkvBMjAJNgsrxcqxKqwWa4LP+SrWifViH3EiTscZuANcwSF4As7DJ+Oz8MX4enwnXo+34lfxh3gf/o1AIxgS7AmeBA5hLCGTMIVQQignbCccIpyGe6mL8I5IJOoSrYnucC8mE7OJ04mLiRuIdcQTxA7iY2I/iUTSJ9mTvElRJC6pgFRCWkfaTWomXSF1kT6QVcgmZGdyEDmFLCIXk8vJu8jHyVfIz8ifKRoUS4onJYrCp0yjLKVsozRRLlG6KJ+pmlRrqjc1nppNnUtdS62lnqbeo75RUVExU/FQiVERqsxRWauyV+WcykOVj6paqnaqbNVUVanqEtUdqidUb6u+odFoVjQ/WgqtgLaEVk07RXtA+6BGV3NU46jx1WarVajVq11Re6lOUbdUZ6lPUC9SL1c/oH5JvVeDomGlwdbgaszSqNA4rHFTo1+TrjlKM0ozT3Ox5i7N85rdWiQtK61ALb7WfK2tWqe0HtMxujmdTefR59G30U/Tu7SJ2tbaHO1s7TLtPdrt2n06WjouOok6U3UqdI7pdOpiula6HN1c3aW6+3Vv6H4aZjSMNUwwbNGw2mFXhr3XG67npyfQK9Wr07uu90mfoR+on6O/XL9B/74BbmBnEGMwxWCjwWmD3uHaw72G84aXDt8//I4hamhnGGs43XCrYZthv5GxUbCR2Gid0SmjXmNdYz/jbONVxseNe0zoJj4mQpNVJs0mzxk6DBYjl7GW0croMzU0DTGVmm4xbTf9bGZtlmBWbFZndt+cas40zzBfZd5i3mdhYhFhMcOixuKOJcWSaZllucbyrOV7K2urJKsFVg1W3dZ61hzrIusa63s2NBtfm8k2VTbXbIm2TNsc2w22l+1QO1e7LLsKu0v2qL2bvdB+g33HCMIIjxGiEVUjbjqoOrAcCh1qHB466jqGOxY7Nji+HGkxMmXk8pFnR35zcnXKddrmdHeU1qjQUcWjmka9drZz5jlXOF8bTRsdNHr26MbRr1zsXQQuG11uudJdI1wXuLa4fnVzd5O41br1uFu4p7lXut9kajOjmYuZ5zwIHv4esz2Oenz0dPMs8Nzv+ZeXg1eO1y6v7jHWYwRjto157G3mzfXe4t3pw/BJ89ns0+lr6sv1rfJ95Gfux/fb7veMZcvKZu1mvfR38pf4H/J/z/Zkz2SfCMACggNKA9oDtQITAtcHPggyC8oMqgnqC3YNnh58IoQQEhayPOQmx4jD41Rz+kLdQ2eGtoaphsWFrQ97FG4XLglvikAjQiNWRtyLtIwURTZEgShO1Mqo+9HW0ZOjj8QQY6JjKmKexo6KnRF7No4eNzFuV9y7eP/4pfF3E2wSpAktieqJqYnVie+TApJWJHWOHTl25tiLyQbJwuTGFFJKYsr2lP5xgeNWj+tKdU0tSb0x3nr81PHnJxhMyJ1wbKL6RO7EA2mEtKS0XWlfuFHcKm5/Oie9Mr2Px+at4b3g+/FX8XsE3oIVgmcZ3hkrMrozvTNXZvZk+WaVZ/UK2cL1wlfZIdmbst/nROXsyBnITcqtyyPnpeUdFmmJckStk4wnTZ3UIbYXl4g7J3tOXj25TxIm2Z6P5I/PbyzQhj/ybVIb6S/Sh4U+hRWFH6YkTjkwVXOqaGrbNLtpi6Y9Kwoq+m06Pp03vWWG6Yy5Mx7OZM3cMguZlT6rZbb57Pmzu+YEz9k5lzo3Z+7vxU7FK4rfzkua1zTfaP6c+Y9/Cf6lpkStRFJyc4HXgk0L8YXChe2LRi9at+hbKb/0QplTWXnZl8W8xRd+HfXr2l8HlmQsaV/qtnTjMuIy0bIby32X71yhuaJoxeOVESvrVzFWla56u3ri6vPlLuWb1lDXSNd0rg1f27jOYt2ydV/WZ62/XuFfUVdpWLmo8v0G/oYrG/021m4y2lS26dNm4eZbW4K31FdZVZVvJW4t3Pp0W+K2s78xf6vebrC9bPvXHaIdnTtjd7ZWu1dX7zLctbQGrZHW9OxO3X15T8CexlqH2i11unVle8Fe6d7n+9L23dgftr/lAPNA7UHLg5WH6IdK65H6afV9DVkNnY3JjR2HQw+3NHk1HTrieGTHUdOjFcd0ji09Tj0+//hAc1Fz/wnxid6TmScft0xsuXtq7KlrrTGt7afDTp87E3Tm1FnW2eZz3ueOnvc8f/gC80LDRbeL9W2ubYd+d/39ULtbe/0l90uNlz0uN3WM6Th+xffKyasBV89c41y7eD3yeseNhBu3bqbe7LzFv9V9O/f2qzuFdz7fnXOPcK/0vsb98geGD6r+sP2jrtOt89jDgIdtj+Ie3X3Me/ziSf6TL13zn9Kelj8zeVbd7dx9tCeo5/Lzcc+7XohffO4t+VPzz8qXNi8P/uX3V1vf2L6uV5JXA68Xv9F/s+Oty9uW/uj+B+/y3n1+X/pB/8POj8yPZz8lfXr2ecoX0pe1X22/Nn0L+3ZvIG9gQMyVcOW/AhisaEYGAK93AEBLBoAOz2fUcYrzn7wgijOrHIH/hBVnRHlxA6AW/r/H9MK/m5sA7N0Gj19QXz0VgGgaAPEeAB09eqgOntXk50pZIcJzwOb4r+l56eDfFMWZ84e4f26BTNUF/Nz+C9nzfEbVa0KNAAAAlmVYSWZNTQAqAAAACAAFARIAAwAAAAEAAQAAARoABQAAAAEAAABKARsABQAAAAEAAABSASgAAwAAAAEAAgAAh2kABAAAAAEAAABaAAAAAAAAAJAAAAABAAAAkAAAAAEAA5KGAAcAAAASAAAAhKACAAQAAAABAAAARKADAAQAAAABAAAAPAAAAABBU0NJSQAAAFNjcmVlbnNob3QEKSxcAAAACXBIWXMAABYlAAAWJQFJUiTwAAAC2WlUWHRYTUw6Y29tLmFkb2JlLnhtcAAAAAAAPHg6eG1wbWV0YSB4bWxuczp4PSJhZG9iZTpuczptZXRhLyIgeDp4bXB0az0iWE1QIENvcmUgNi4wLjAiPgogICA8cmRmOlJERiB4bWxuczpyZGY9Imh0dHA6Ly93d3cudzMub3JnLzE5OTkvMDIvMjItcmRmLXN5bnRheC1ucyMiPgogICAgICA8cmRmOkRlc2NyaXB0aW9uIHJkZjphYm91dD0iIgogICAgICAgICAgICB4bWxuczpleGlmPSJodHRwOi8vbnMuYWRvYmUuY29tL2V4aWYvMS4wLyIKICAgICAgICAgICAgeG1sbnM6dGlmZj0iaHR0cDovL25zLmFkb2JlLmNvbS90aWZmLzEuMC8iPgogICAgICAgICA8ZXhpZjpVc2VyQ29tbWVudD5TY3JlZW5zaG90PC9leGlmOlVzZXJDb21tZW50PgogICAgICAgICA8ZXhpZjpQaXhlbFhEaW1lbnNpb24+Njg8L2V4aWY6UGl4ZWxYRGltZW5zaW9uPgogICAgICAgICA8ZXhpZjpQaXhlbFlEaW1lbnNpb24+NjA8L2V4aWY6UGl4ZWxZRGltZW5zaW9uPgogICAgICAgICA8dGlmZjpSZXNvbHV0aW9uVW5pdD4yPC90aWZmOlJlc29sdXRpb25Vbml0PgogICAgICAgICA8dGlmZjpYUmVzb2x1dGlvbj4xNDQvMTwvdGlmZjpYUmVzb2x1dGlvbj4KICAgICAgICAgPHRpZmY6WVJlc29sdXRpb24+MTQ0LzE8L3RpZmY6WVJlc29sdXRpb24+CiAgICAgICAgIDx0aWZmOk9yaWVudGF0aW9uPjE8L3RpZmY6T3JpZW50YXRpb24+CiAgICAgIDwvcmRmOkRlc2NyaXB0aW9uPgogICA8L3JkZjpSREY+CjwveDp4bXBtZXRhPgrInBAqAAAGNklEQVRoBe3aC0/cOhCG4UCXUuiFwv//fUjcWmjpDQqcPpa+yOtmEalO2aTakUZOso4z83o8ngS27u/vH7qN9AS2+6PNQSGwAdIEwqI5f/T04eGh+7XEit7d3ZW+W1tbXfTRm9f4I7uJlq3b29u9tmaNAvLz58/u69evvRpssVh0Ozs7pW0Hn8I5CCYvyta9vb1eWxtHA7m+vu4+fPhQFO1Xr151u7u7pW0Hn8K5iL69vS16c3PT7e/vdwcHByVC2M6HWv4IyPn5eXd8fFwGff36dRetB57Kscj48eNH9/3799K+ffu2QAADmFZGAUn4Ie4hL168KNFhFlrS7YPWeQ4Km0ERzZY+m4dkFBDJKGvwzZs3JW+g/O7du0HaQw987mtAyHNsN6GA8MFkDskoIKLAYMINkJcvXxYQoLx//35o/LVfE8nsTnSzOYCGjBsFpI0QYEQHGIeHh0Pjr/0aICTLJhHClyFZWEs6p0WSaHOcG799+9bZZT5//lxa4Zjc0a5JDzQb0VUhmrH/VitfeDZlE2Vz7G6fuwDDdhTlWHQISLZcrdBTl4B0dXW1NDYDklu06wKyZNQTTkqEgGH2KaIgJWrqMTgPxMXFRWnRBiOFTt1XZBgXCHu/UJ2D9BEChqUACLUcQKlFn48fPxYFRgRxNMui7us6YGqUo6Oj+qdJHy84lfwBhLXFmaEqzkzbZVLt8cx5ynf7fHTSXj9iXNllAElUAAEI5Wwt+phxu4poIZZE9PLysqPGE2FzlJURosQVCbUEHDCU1Fnb0tFHrpk1kHrZWDIiQ6JUfI0Ry+XTp0+/RdaYMdbdd7g6WbdVa3z+BkgDfwOkAbKQMyRGO4Xt07nEmGKt7i/XpGhLjaJ/xkgy1c94Sbj1GFM/XjAaCDuEROocDBVoXozihJ3Fdht13b1R5TsoxHiSMzCAzUVKhHBI3ZGtUpvj2hGAOB3lKMfdq3UPmCLENePODkgbIZyOtlDM/tnZWa/uVcjlXSZVKxAAafWZVYTUQMys8yiHapFbAEg1a/bzPVWbZZI6RnGnr35zkT6HMLiGw5EkzjhjGYACnFkHjNNR5xQAcBR2omdWQOJYDYPT0cDQghQYcdrnw2giKy0oIM4KSIyvHV91bLYJB6lznw6jq+6b0/XyPSS1hW1VBNRaO5PvIb6F+C4iAiRgyda3lFqAFlHRNh/Vfad03H8xy86SpZK2NhYQMKKiJDC89tcCgM8ENLml/n2qx0tfzDgnSkSMFpRa/A6GT4hUFIgMS0ck1CJ6jAHG2LfmepznPi4Rot7w6v7ly5el0rwFkq9hii/3WFr6cFyEOc61bL0SbrtbPbeTY5732wcis56dwXEtag2/mXGJlPN1MSaCqKXltznKEhCzLvw5rRX2tYiEwBAtRB4BTpvcIiJEzBxlCQiH1SXywdAnRLPOWUsjy0D/qHxhDEtvtkDMYtY9RzlntkWHKBkjXvqy3MbcN6W+y0liSpatyZYNkAb8BkgDpHwgkjNsn/KGHCIx2jod1yKR+o3mW4kdJupPEJJptuPsQPUYUz/uX/+TRDnHWZ8Qs7XGCdfVGXYRLWApywFVtfoNEOO5BkoLNuNNsV0CYrvlDMdVo3adWgDyzuLFTstRu0pUBGU7BgQsgGcLBABOC/u0NRCzf3p6WvTk5KQ4a2v2J88UdEAAFCCzi5CEPSeIGTWzHJIrask1UQCefsp51avWEomKNm+6QIEyF+mXDIPB4BA4HEn4xxnXs4yA1Nd/B6lq819CnE9eAWm2QAKDw1H5pJa84uvLcYDyH4ha14GiGQ80gOYi/bb7lLDmWLZd0QOIt15LQ7tKAnjV73/zOjuzxE1wdNUzR02dwQCxA0m6HgSSaJiqsFUJoa6ye7L3sQkaDQQEAwOiDQzXpygmUM3EXnAsYUDadBDb/whIIkSuMHAgZdAptWxjLzWBzv83IADINdmJOJ4ls4r4uuHUNjtOfZTIbu0bFSFgKMIk0AwITrQdfArnJkpEiAyqDFAOADMko4CIBkCQNjABBqin7FJDBjzHtSwRbaIbEH60svWr03Kx0faozkPbwJQYdGjg6rbJHLKfrSYxbWvcKCDtzf/i+XQLiDXR3gBpwG+ANED+A8I8opteDCP0AAAAAElFTkSuQmCC;movable=1;resizable=1;rotatable=1;deletable=1;editable=1;locked=0;connectable=1;container=0;" parent="jvcADhcVPLt3B4X78LWL-1" vertex="1">
          <mxGeometry x="528.74" y="163.63" width="27" height="27" as="geometry" />
        </mxCell>
        <mxCell id="jvcADhcVPLt3B4X78LWL-51" value="&lt;span style=&quot;text-wrap: nowrap;&quot;&gt;MQTT&lt;/span&gt;" style="html=1;whiteSpace=wrap;fontStyle=1;align=left;fontSize=12;strokeColor=#00FF00;" parent="jvcADhcVPLt3B4X78LWL-1" vertex="1">
          <mxGeometry x="448.4100000000001" y="237.88" width="112.67" height="40" as="geometry" />
        </mxCell>
        <mxCell id="jvcADhcVPLt3B4X78LWL-52" value="" style="shape=image;verticalLabelPosition=bottom;labelBackgroundColor=default;verticalAlign=top;aspect=fixed;imageAspect=0;image=data:image/png,iVBORw0KGgoAAAANSUhEUgAAAEQAAAA8CAYAAADfYhweAAAMP2lDQ1BJQ0MgUHJvZmlsZQAASImVVwdYU8kWnltSIbQAAlJCb4KIlABSQmihdwRRCUmAUGIMBBU7uqjg2sUCNnRVRMEKiAVF7CyKvS8WFJR1sWBX3qSArvvK9+b75s5//znznzPnztx7BwD1E1yxOBfVACBPVCCJDfZnjE1OYZC6AQmQAQUYAJzLyxezoqPDASyD7d/LuxsAkbVXHWRa/+z/r0WTL8jnAYBEQ5zOz+flQXwQALySJ5YUAECU8eZTCsQyDCvQlsAAIV4ow5kKXCnD6Qq8V24TH8uGuBUAsiqXK8kEQO0y5BmFvEyoodYHsZOILxQBoM6A2CcvbxIf4jSIbaCNGGKZPjP9B53Mv2mmD2lyuZlDWDEXeSEHCPPFudxp/2c6/nfJy5UO+rCCVTVLEhIrmzPM262cSWEyrApxryg9MgpiLYg/CPlye4hRapY0JEFhjxry8tkwZ0AXYic+NyAMYkOIg0S5keFKPj1DGMSBGK4QdKqwgBMPsR7ECwX5gXFKm82SSbFKX2h9hoTNUvLnuBK5X5mvB9KcBJZS/3WWgKPUx9SKsuKTIKZCbFEoTIyEWA1ix/ycuDClzZiiLHbkoI1EGiuL3wLiWIEo2F+hjxVmSIJilfalefmD88U2Zwk5kUq8vyArPkSRH6yVx5XHD+eCXRaIWAmDOoL8seGDc+ELAgIVc8e6BaKEOKXOB3GBf6xiLE4V50Yr7XEzQW6wjDeD2CW/ME45Fk8sgAtSoY9niAui4xVx4kXZ3NBoRTz4MhAO2CAAMIAU1nQwCWQDYXtvQy+8U/QEAS6QgEwgAA5KZnBEkrxHBK9xoAj8CZEA5A+N85f3CkAh5L8OsYqrA8iQ9xbKR+SApxDngTCQC++l8lGiIW+J4AlkhP/wzoWVB+PNhVXW/+/5QfY7w4JMuJKRDnpkqA9aEgOJAcQQYhDRFjfAfXAvPBxe/WB1xpm4x+A8vtsTnhI6CI8I1wmdhNsThcWSn6KMAJ1QP0iZi/Qfc4FbQU1X3B/3hupQGdfFDYAD7gL9sHBf6NkVsmxl3LKsMH7S/tsMfngaSjuKEwWlDKP4UWx+Hqlmp+Y6pCLL9Y/5UcSaPpRv9lDPz/7ZP2SfD9uwny2xhdgB7Cx2EjuPHcUaAANrxhqxNuyYDA+trify1TXoLVYeTw7UEf7D3+CTlWUy36nGqcfpi6KvQDBV9o4G7EniaRJhZlYBgwW/CAIGR8RzHMFwdnJ2AUD2fVG8vt7EyL8biG7bd27eHwB4Nw8MDBz5zoU2A7DPHW7/w985Gyb8dKgAcO4wTyopVHC47EKAbwl1uNP0gTEwBzZwPs7ADXgBPxAIQkEUiAfJYAKMPguucwmYAmaAuaAElIFlYDVYDzaBrWAn2AP2gwZwFJwEZ8BFcBlcB3fh6ukCL0AfeAc+IwhCQmgIHdFHTBBLxB5xRpiIDxKIhCOxSDKShmQiIkSKzEDmIWXICmQ9sgWpRvYhh5GTyHmkA7mNPER6kNfIJxRDVVFt1Ai1QkeiTJSFhqHx6Hg0E52MFqHz0SXoWrQK3Y3WoyfRi+h1tBN9gfZjAFPBdDFTzAFjYmwsCkvBMjAJNgsrxcqxKqwWa4LP+SrWifViH3EiTscZuANcwSF4As7DJ+Oz8MX4enwnXo+34lfxh3gf/o1AIxgS7AmeBA5hLCGTMIVQQignbCccIpyGe6mL8I5IJOoSrYnucC8mE7OJ04mLiRuIdcQTxA7iY2I/iUTSJ9mTvElRJC6pgFRCWkfaTWomXSF1kT6QVcgmZGdyEDmFLCIXk8vJu8jHyVfIz8ifKRoUS4onJYrCp0yjLKVsozRRLlG6KJ+pmlRrqjc1nppNnUtdS62lnqbeo75RUVExU/FQiVERqsxRWauyV+WcykOVj6paqnaqbNVUVanqEtUdqidUb6u+odFoVjQ/WgqtgLaEVk07RXtA+6BGV3NU46jx1WarVajVq11Re6lOUbdUZ6lPUC9SL1c/oH5JvVeDomGlwdbgaszSqNA4rHFTo1+TrjlKM0ozT3Ox5i7N85rdWiQtK61ALb7WfK2tWqe0HtMxujmdTefR59G30U/Tu7SJ2tbaHO1s7TLtPdrt2n06WjouOok6U3UqdI7pdOpiula6HN1c3aW6+3Vv6H4aZjSMNUwwbNGw2mFXhr3XG67npyfQK9Wr07uu90mfoR+on6O/XL9B/74BbmBnEGMwxWCjwWmD3uHaw72G84aXDt8//I4hamhnGGs43XCrYZthv5GxUbCR2Gid0SmjXmNdYz/jbONVxseNe0zoJj4mQpNVJs0mzxk6DBYjl7GW0croMzU0DTGVmm4xbTf9bGZtlmBWbFZndt+cas40zzBfZd5i3mdhYhFhMcOixuKOJcWSaZllucbyrOV7K2urJKsFVg1W3dZ61hzrIusa63s2NBtfm8k2VTbXbIm2TNsc2w22l+1QO1e7LLsKu0v2qL2bvdB+g33HCMIIjxGiEVUjbjqoOrAcCh1qHB466jqGOxY7Nji+HGkxMmXk8pFnR35zcnXKddrmdHeU1qjQUcWjmka9drZz5jlXOF8bTRsdNHr26MbRr1zsXQQuG11uudJdI1wXuLa4fnVzd5O41br1uFu4p7lXut9kajOjmYuZ5zwIHv4esz2Oenz0dPMs8Nzv+ZeXg1eO1y6v7jHWYwRjto157G3mzfXe4t3pw/BJ89ns0+lr6sv1rfJ95Gfux/fb7veMZcvKZu1mvfR38pf4H/J/z/Zkz2SfCMACggNKA9oDtQITAtcHPggyC8oMqgnqC3YNnh58IoQQEhayPOQmx4jD41Rz+kLdQ2eGtoaphsWFrQ97FG4XLglvikAjQiNWRtyLtIwURTZEgShO1Mqo+9HW0ZOjj8QQY6JjKmKexo6KnRF7No4eNzFuV9y7eP/4pfF3E2wSpAktieqJqYnVie+TApJWJHWOHTl25tiLyQbJwuTGFFJKYsr2lP5xgeNWj+tKdU0tSb0x3nr81PHnJxhMyJ1wbKL6RO7EA2mEtKS0XWlfuFHcKm5/Oie9Mr2Px+at4b3g+/FX8XsE3oIVgmcZ3hkrMrozvTNXZvZk+WaVZ/UK2cL1wlfZIdmbst/nROXsyBnITcqtyyPnpeUdFmmJckStk4wnTZ3UIbYXl4g7J3tOXj25TxIm2Z6P5I/PbyzQhj/ybVIb6S/Sh4U+hRWFH6YkTjkwVXOqaGrbNLtpi6Y9Kwoq+m06Pp03vWWG6Yy5Mx7OZM3cMguZlT6rZbb57Pmzu+YEz9k5lzo3Z+7vxU7FK4rfzkua1zTfaP6c+Y9/Cf6lpkStRFJyc4HXgk0L8YXChe2LRi9at+hbKb/0QplTWXnZl8W8xRd+HfXr2l8HlmQsaV/qtnTjMuIy0bIby32X71yhuaJoxeOVESvrVzFWla56u3ri6vPlLuWb1lDXSNd0rg1f27jOYt2ydV/WZ62/XuFfUVdpWLmo8v0G/oYrG/021m4y2lS26dNm4eZbW4K31FdZVZVvJW4t3Pp0W+K2s78xf6vebrC9bPvXHaIdnTtjd7ZWu1dX7zLctbQGrZHW9OxO3X15T8CexlqH2i11unVle8Fe6d7n+9L23dgftr/lAPNA7UHLg5WH6IdK65H6afV9DVkNnY3JjR2HQw+3NHk1HTrieGTHUdOjFcd0ji09Tj0+//hAc1Fz/wnxid6TmScft0xsuXtq7KlrrTGt7afDTp87E3Tm1FnW2eZz3ueOnvc8f/gC80LDRbeL9W2ubYd+d/39ULtbe/0l90uNlz0uN3WM6Th+xffKyasBV89c41y7eD3yeseNhBu3bqbe7LzFv9V9O/f2qzuFdz7fnXOPcK/0vsb98geGD6r+sP2jrtOt89jDgIdtj+Ie3X3Me/ziSf6TL13zn9Kelj8zeVbd7dx9tCeo5/Lzcc+7XohffO4t+VPzz8qXNi8P/uX3V1vf2L6uV5JXA68Xv9F/s+Oty9uW/uj+B+/y3n1+X/pB/8POj8yPZz8lfXr2ecoX0pe1X22/Nn0L+3ZvIG9gQMyVcOW/AhisaEYGAK93AEBLBoAOz2fUcYrzn7wgijOrHIH/hBVnRHlxA6AW/r/H9MK/m5sA7N0Gj19QXz0VgGgaAPEeAB09eqgOntXk50pZIcJzwOb4r+l56eDfFMWZ84e4f26BTNUF/Nz+C9nzfEbVa0KNAAAAlmVYSWZNTQAqAAAACAAFARIAAwAAAAEAAQAAARoABQAAAAEAAABKARsABQAAAAEAAABSASgAAwAAAAEAAgAAh2kABAAAAAEAAABaAAAAAAAAAJAAAAABAAAAkAAAAAEAA5KGAAcAAAASAAAAhKACAAQAAAABAAAARKADAAQAAAABAAAAPAAAAABBU0NJSQAAAFNjcmVlbnNob3QEKSxcAAAACXBIWXMAABYlAAAWJQFJUiTwAAAC2WlUWHRYTUw6Y29tLmFkb2JlLnhtcAAAAAAAPHg6eG1wbWV0YSB4bWxuczp4PSJhZG9iZTpuczptZXRhLyIgeDp4bXB0az0iWE1QIENvcmUgNi4wLjAiPgogICA8cmRmOlJERiB4bWxuczpyZGY9Imh0dHA6Ly93d3cudzMub3JnLzE5OTkvMDIvMjItcmRmLXN5bnRheC1ucyMiPgogICAgICA8cmRmOkRlc2NyaXB0aW9uIHJkZjphYm91dD0iIgogICAgICAgICAgICB4bWxuczpleGlmPSJodHRwOi8vbnMuYWRvYmUuY29tL2V4aWYvMS4wLyIKICAgICAgICAgICAgeG1sbnM6dGlmZj0iaHR0cDovL25zLmFkb2JlLmNvbS90aWZmLzEuMC8iPgogICAgICAgICA8ZXhpZjpVc2VyQ29tbWVudD5TY3JlZW5zaG90PC9leGlmOlVzZXJDb21tZW50PgogICAgICAgICA8ZXhpZjpQaXhlbFhEaW1lbnNpb24+Njg8L2V4aWY6UGl4ZWxYRGltZW5zaW9uPgogICAgICAgICA8ZXhpZjpQaXhlbFlEaW1lbnNpb24+NjA8L2V4aWY6UGl4ZWxZRGltZW5zaW9uPgogICAgICAgICA8dGlmZjpSZXNvbHV0aW9uVW5pdD4yPC90aWZmOlJlc29sdXRpb25Vbml0PgogICAgICAgICA8dGlmZjpYUmVzb2x1dGlvbj4xNDQvMTwvdGlmZjpYUmVzb2x1dGlvbj4KICAgICAgICAgPHRpZmY6WVJlc29sdXRpb24+MTQ0LzE8L3RpZmY6WVJlc29sdXRpb24+CiAgICAgICAgIDx0aWZmOk9yaWVudGF0aW9uPjE8L3RpZmY6T3JpZW50YXRpb24+CiAgICAgIDwvcmRmOkRlc2NyaXB0aW9uPgogICA8L3JkZjpSREY+CjwveDp4bXBtZXRhPgrInBAqAAAGNklEQVRoBe3aC0/cOhCG4UCXUuiFwv//fUjcWmjpDQqcPpa+yOtmEalO2aTakUZOso4z83o8ngS27u/vH7qN9AS2+6PNQSGwAdIEwqI5f/T04eGh+7XEit7d3ZW+W1tbXfTRm9f4I7uJlq3b29u9tmaNAvLz58/u69evvRpssVh0Ozs7pW0Hn8I5CCYvyta9vb1eWxtHA7m+vu4+fPhQFO1Xr151u7u7pW0Hn8K5iL69vS16c3PT7e/vdwcHByVC2M6HWv4IyPn5eXd8fFwGff36dRetB57Kscj48eNH9/3799K+ffu2QAADmFZGAUn4Ie4hL168KNFhFlrS7YPWeQ4Km0ERzZY+m4dkFBDJKGvwzZs3JW+g/O7du0HaQw987mtAyHNsN6GA8MFkDskoIKLAYMINkJcvXxYQoLx//35o/LVfE8nsTnSzOYCGjBsFpI0QYEQHGIeHh0Pjr/0aICTLJhHClyFZWEs6p0WSaHOcG799+9bZZT5//lxa4Zjc0a5JDzQb0VUhmrH/VitfeDZlE2Vz7G6fuwDDdhTlWHQISLZcrdBTl4B0dXW1NDYDklu06wKyZNQTTkqEgGH2KaIgJWrqMTgPxMXFRWnRBiOFTt1XZBgXCHu/UJ2D9BEChqUACLUcQKlFn48fPxYFRgRxNMui7us6YGqUo6Oj+qdJHy84lfwBhLXFmaEqzkzbZVLt8cx5ynf7fHTSXj9iXNllAElUAAEI5Wwt+phxu4poIZZE9PLysqPGE2FzlJURosQVCbUEHDCU1Fnb0tFHrpk1kHrZWDIiQ6JUfI0Ry+XTp0+/RdaYMdbdd7g6WbdVa3z+BkgDfwOkAbKQMyRGO4Xt07nEmGKt7i/XpGhLjaJ/xkgy1c94Sbj1GFM/XjAaCDuEROocDBVoXozihJ3Fdht13b1R5TsoxHiSMzCAzUVKhHBI3ZGtUpvj2hGAOB3lKMfdq3UPmCLENePODkgbIZyOtlDM/tnZWa/uVcjlXSZVKxAAafWZVYTUQMys8yiHapFbAEg1a/bzPVWbZZI6RnGnr35zkT6HMLiGw5EkzjhjGYACnFkHjNNR5xQAcBR2omdWQOJYDYPT0cDQghQYcdrnw2giKy0oIM4KSIyvHV91bLYJB6lznw6jq+6b0/XyPSS1hW1VBNRaO5PvIb6F+C4iAiRgyda3lFqAFlHRNh/Vfad03H8xy86SpZK2NhYQMKKiJDC89tcCgM8ENLml/n2qx0tfzDgnSkSMFpRa/A6GT4hUFIgMS0ck1CJ6jAHG2LfmepznPi4Rot7w6v7ly5el0rwFkq9hii/3WFr6cFyEOc61bL0SbrtbPbeTY5732wcis56dwXEtag2/mXGJlPN1MSaCqKXltznKEhCzLvw5rRX2tYiEwBAtRB4BTpvcIiJEzBxlCQiH1SXywdAnRLPOWUsjy0D/qHxhDEtvtkDMYtY9RzlntkWHKBkjXvqy3MbcN6W+y0liSpatyZYNkAb8BkgDpHwgkjNsn/KGHCIx2jod1yKR+o3mW4kdJupPEJJptuPsQPUYUz/uX/+TRDnHWZ8Qs7XGCdfVGXYRLWApywFVtfoNEOO5BkoLNuNNsV0CYrvlDMdVo3adWgDyzuLFTstRu0pUBGU7BgQsgGcLBABOC/u0NRCzf3p6WvTk5KQ4a2v2J88UdEAAFCCzi5CEPSeIGTWzHJIrask1UQCefsp51avWEomKNm+6QIEyF+mXDIPB4BA4HEn4xxnXs4yA1Nd/B6lq819CnE9eAWm2QAKDw1H5pJa84uvLcYDyH4ha14GiGQ80gOYi/bb7lLDmWLZd0QOIt15LQ7tKAnjV73/zOjuzxE1wdNUzR02dwQCxA0m6HgSSaJiqsFUJoa6ye7L3sQkaDQQEAwOiDQzXpygmUM3EXnAsYUDadBDb/whIIkSuMHAgZdAptWxjLzWBzv83IADINdmJOJ4ls4r4uuHUNjtOfZTIbu0bFSFgKMIk0AwITrQdfArnJkpEiAyqDFAOADMko4CIBkCQNjABBqin7FJDBjzHtSwRbaIbEH60svWr03Kx0faozkPbwJQYdGjg6rbJHLKfrSYxbWvcKCDtzf/i+XQLiDXR3gBpwG+ANED+A8I8opteDCP0AAAAAElFTkSuQmCC;movable=1;resizable=1;rotatable=1;deletable=1;editable=1;locked=0;connectable=1;container=0;" parent="jvcADhcVPLt3B4X78LWL-1" vertex="1">
          <mxGeometry x="527.74" y="244.38" width="27" height="27" as="geometry" />
        </mxCell>
        <mxCell id="07bfvZG-6_nP_2OwuIHk-3" value="&lt;span style=&quot;font-size: 14px; text-align: center;&quot;&gt;&lt;span style=&quot;line-height: 14.98px; font-family: Aptos, sans-serif;&quot;&gt;Atmega328P&lt;/span&gt;&lt;/span&gt;" style="html=1;whiteSpace=wrap;fontStyle=1;align=left;strokeColor=#FF8000;" parent="jvcADhcVPLt3B4X78LWL-1" vertex="1">
          <mxGeometry x="174.75" y="277.88" width="170" height="52.5" as="geometry" />
        </mxCell>
        <mxCell id="07bfvZG-6_nP_2OwuIHk-6" value="&lt;span style=&quot;font-size: 15px;&quot;&gt;&lt;b&gt;PC Client VPN&lt;/b&gt;&lt;/span&gt;" style="verticalAlign=top;align=center;spacingTop=8;spacingLeft=2;spacingRight=12;shape=cube;size=10;direction=south;fontStyle=4;html=1;whiteSpace=wrap;fillColor=#54AFFF;strokeColor=#00ff00;" parent="jvcADhcVPLt3B4X78LWL-1" vertex="1">
          <mxGeometry x="840.16" y="103.26" width="213" height="292.82" as="geometry" />
        </mxCell>
        <mxCell id="07bfvZG-6_nP_2OwuIHk-14" value="" style="shape=image;verticalLabelPosition=bottom;labelBackgroundColor=default;verticalAlign=top;aspect=fixed;imageAspect=0;image=data:image/png,iVBORw0KGgoAAAANSUhEUgAAAEQAAAA8CAYAAADfYhweAAAMP2lDQ1BJQ0MgUHJvZmlsZQAASImVVwdYU8kWnltSIbQAAlJCb4KIlABSQmihdwRRCUmAUGIMBBU7uqjg2sUCNnRVRMEKiAVF7CyKvS8WFJR1sWBX3qSArvvK9+b75s5//znznzPnztx7BwD1E1yxOBfVACBPVCCJDfZnjE1OYZC6AQmQAQUYAJzLyxezoqPDASyD7d/LuxsAkbVXHWRa/+z/r0WTL8jnAYBEQ5zOz+flQXwQALySJ5YUAECU8eZTCsQyDCvQlsAAIV4ow5kKXCnD6Qq8V24TH8uGuBUAsiqXK8kEQO0y5BmFvEyoodYHsZOILxQBoM6A2CcvbxIf4jSIbaCNGGKZPjP9B53Mv2mmD2lyuZlDWDEXeSEHCPPFudxp/2c6/nfJy5UO+rCCVTVLEhIrmzPM262cSWEyrApxryg9MgpiLYg/CPlye4hRapY0JEFhjxry8tkwZ0AXYic+NyAMYkOIg0S5keFKPj1DGMSBGK4QdKqwgBMPsR7ECwX5gXFKm82SSbFKX2h9hoTNUvLnuBK5X5mvB9KcBJZS/3WWgKPUx9SKsuKTIKZCbFEoTIyEWA1ix/ycuDClzZiiLHbkoI1EGiuL3wLiWIEo2F+hjxVmSIJilfalefmD88U2Zwk5kUq8vyArPkSRH6yVx5XHD+eCXRaIWAmDOoL8seGDc+ELAgIVc8e6BaKEOKXOB3GBf6xiLE4V50Yr7XEzQW6wjDeD2CW/ME45Fk8sgAtSoY9niAui4xVx4kXZ3NBoRTz4MhAO2CAAMIAU1nQwCWQDYXtvQy+8U/QEAS6QgEwgAA5KZnBEkrxHBK9xoAj8CZEA5A+N85f3CkAh5L8OsYqrA8iQ9xbKR+SApxDngTCQC++l8lGiIW+J4AlkhP/wzoWVB+PNhVXW/+/5QfY7w4JMuJKRDnpkqA9aEgOJAcQQYhDRFjfAfXAvPBxe/WB1xpm4x+A8vtsTnhI6CI8I1wmdhNsThcWSn6KMAJ1QP0iZi/Qfc4FbQU1X3B/3hupQGdfFDYAD7gL9sHBf6NkVsmxl3LKsMH7S/tsMfngaSjuKEwWlDKP4UWx+Hqlmp+Y6pCLL9Y/5UcSaPpRv9lDPz/7ZP2SfD9uwny2xhdgB7Cx2EjuPHcUaAANrxhqxNuyYDA+trify1TXoLVYeTw7UEf7D3+CTlWUy36nGqcfpi6KvQDBV9o4G7EniaRJhZlYBgwW/CAIGR8RzHMFwdnJ2AUD2fVG8vt7EyL8biG7bd27eHwB4Nw8MDBz5zoU2A7DPHW7/w985Gyb8dKgAcO4wTyopVHC47EKAbwl1uNP0gTEwBzZwPs7ADXgBPxAIQkEUiAfJYAKMPguucwmYAmaAuaAElIFlYDVYDzaBrWAn2AP2gwZwFJwEZ8BFcBlcB3fh6ukCL0AfeAc+IwhCQmgIHdFHTBBLxB5xRpiIDxKIhCOxSDKShmQiIkSKzEDmIWXICmQ9sgWpRvYhh5GTyHmkA7mNPER6kNfIJxRDVVFt1Ai1QkeiTJSFhqHx6Hg0E52MFqHz0SXoWrQK3Y3WoyfRi+h1tBN9gfZjAFPBdDFTzAFjYmwsCkvBMjAJNgsrxcqxKqwWa4LP+SrWifViH3EiTscZuANcwSF4As7DJ+Oz8MX4enwnXo+34lfxh3gf/o1AIxgS7AmeBA5hLCGTMIVQQignbCccIpyGe6mL8I5IJOoSrYnucC8mE7OJ04mLiRuIdcQTxA7iY2I/iUTSJ9mTvElRJC6pgFRCWkfaTWomXSF1kT6QVcgmZGdyEDmFLCIXk8vJu8jHyVfIz8ifKRoUS4onJYrCp0yjLKVsozRRLlG6KJ+pmlRrqjc1nppNnUtdS62lnqbeo75RUVExU/FQiVERqsxRWauyV+WcykOVj6paqnaqbNVUVanqEtUdqidUb6u+odFoVjQ/WgqtgLaEVk07RXtA+6BGV3NU46jx1WarVajVq11Re6lOUbdUZ6lPUC9SL1c/oH5JvVeDomGlwdbgaszSqNA4rHFTo1+TrjlKM0ozT3Ox5i7N85rdWiQtK61ALb7WfK2tWqe0HtMxujmdTefR59G30U/Tu7SJ2tbaHO1s7TLtPdrt2n06WjouOok6U3UqdI7pdOpiula6HN1c3aW6+3Vv6H4aZjSMNUwwbNGw2mFXhr3XG67npyfQK9Wr07uu90mfoR+on6O/XL9B/74BbmBnEGMwxWCjwWmD3uHaw72G84aXDt8//I4hamhnGGs43XCrYZthv5GxUbCR2Gid0SmjXmNdYz/jbONVxseNe0zoJj4mQpNVJs0mzxk6DBYjl7GW0croMzU0DTGVmm4xbTf9bGZtlmBWbFZndt+cas40zzBfZd5i3mdhYhFhMcOixuKOJcWSaZllucbyrOV7K2urJKsFVg1W3dZ61hzrIusa63s2NBtfm8k2VTbXbIm2TNsc2w22l+1QO1e7LLsKu0v2qL2bvdB+g33HCMIIjxGiEVUjbjqoOrAcCh1qHB466jqGOxY7Nji+HGkxMmXk8pFnR35zcnXKddrmdHeU1qjQUcWjmka9drZz5jlXOF8bTRsdNHr26MbRr1zsXQQuG11uudJdI1wXuLa4fnVzd5O41br1uFu4p7lXut9kajOjmYuZ5zwIHv4esz2Oenz0dPMs8Nzv+ZeXg1eO1y6v7jHWYwRjto157G3mzfXe4t3pw/BJ89ns0+lr6sv1rfJ95Gfux/fb7veMZcvKZu1mvfR38pf4H/J/z/Zkz2SfCMACggNKA9oDtQITAtcHPggyC8oMqgnqC3YNnh58IoQQEhayPOQmx4jD41Rz+kLdQ2eGtoaphsWFrQ97FG4XLglvikAjQiNWRtyLtIwURTZEgShO1Mqo+9HW0ZOjj8QQY6JjKmKexo6KnRF7No4eNzFuV9y7eP/4pfF3E2wSpAktieqJqYnVie+TApJWJHWOHTl25tiLyQbJwuTGFFJKYsr2lP5xgeNWj+tKdU0tSb0x3nr81PHnJxhMyJ1wbKL6RO7EA2mEtKS0XWlfuFHcKm5/Oie9Mr2Px+at4b3g+/FX8XsE3oIVgmcZ3hkrMrozvTNXZvZk+WaVZ/UK2cL1wlfZIdmbst/nROXsyBnITcqtyyPnpeUdFmmJckStk4wnTZ3UIbYXl4g7J3tOXj25TxIm2Z6P5I/PbyzQhj/ybVIb6S/Sh4U+hRWFH6YkTjkwVXOqaGrbNLtpi6Y9Kwoq+m06Pp03vWWG6Yy5Mx7OZM3cMguZlT6rZbb57Pmzu+YEz9k5lzo3Z+7vxU7FK4rfzkua1zTfaP6c+Y9/Cf6lpkStRFJyc4HXgk0L8YXChe2LRi9at+hbKb/0QplTWXnZl8W8xRd+HfXr2l8HlmQsaV/qtnTjMuIy0bIby32X71yhuaJoxeOVESvrVzFWla56u3ri6vPlLuWb1lDXSNd0rg1f27jOYt2ydV/WZ62/XuFfUVdpWLmo8v0G/oYrG/021m4y2lS26dNm4eZbW4K31FdZVZVvJW4t3Pp0W+K2s78xf6vebrC9bPvXHaIdnTtjd7ZWu1dX7zLctbQGrZHW9OxO3X15T8CexlqH2i11unVle8Fe6d7n+9L23dgftr/lAPNA7UHLg5WH6IdK65H6afV9DVkNnY3JjR2HQw+3NHk1HTrieGTHUdOjFcd0ji09Tj0+//hAc1Fz/wnxid6TmScft0xsuXtq7KlrrTGt7afDTp87E3Tm1FnW2eZz3ueOnvc8f/gC80LDRbeL9W2ubYd+d/39ULtbe/0l90uNlz0uN3WM6Th+xffKyasBV89c41y7eD3yeseNhBu3bqbe7LzFv9V9O/f2qzuFdz7fnXOPcK/0vsb98geGD6r+sP2jrtOt89jDgIdtj+Ie3X3Me/ziSf6TL13zn9Kelj8zeVbd7dx9tCeo5/Lzcc+7XohffO4t+VPzz8qXNi8P/uX3V1vf2L6uV5JXA68Xv9F/s+Oty9uW/uj+B+/y3n1+X/pB/8POj8yPZz8lfXr2ecoX0pe1X22/Nn0L+3ZvIG9gQMyVcOW/AhisaEYGAK93AEBLBoAOz2fUcYrzn7wgijOrHIH/hBVnRHlxA6AW/r/H9MK/m5sA7N0Gj19QXz0VgGgaAPEeAB09eqgOntXk50pZIcJzwOb4r+l56eDfFMWZ84e4f26BTNUF/Nz+C9nzfEbVa0KNAAAAlmVYSWZNTQAqAAAACAAFARIAAwAAAAEAAQAAARoABQAAAAEAAABKARsABQAAAAEAAABSASgAAwAAAAEAAgAAh2kABAAAAAEAAABaAAAAAAAAAJAAAAABAAAAkAAAAAEAA5KGAAcAAAASAAAAhKACAAQAAAABAAAARKADAAQAAAABAAAAPAAAAABBU0NJSQAAAFNjcmVlbnNob3QEKSxcAAAACXBIWXMAABYlAAAWJQFJUiTwAAAC2WlUWHRYTUw6Y29tLmFkb2JlLnhtcAAAAAAAPHg6eG1wbWV0YSB4bWxuczp4PSJhZG9iZTpuczptZXRhLyIgeDp4bXB0az0iWE1QIENvcmUgNi4wLjAiPgogICA8cmRmOlJERiB4bWxuczpyZGY9Imh0dHA6Ly93d3cudzMub3JnLzE5OTkvMDIvMjItcmRmLXN5bnRheC1ucyMiPgogICAgICA8cmRmOkRlc2NyaXB0aW9uIHJkZjphYm91dD0iIgogICAgICAgICAgICB4bWxuczpleGlmPSJodHRwOi8vbnMuYWRvYmUuY29tL2V4aWYvMS4wLyIKICAgICAgICAgICAgeG1sbnM6dGlmZj0iaHR0cDovL25zLmFkb2JlLmNvbS90aWZmLzEuMC8iPgogICAgICAgICA8ZXhpZjpVc2VyQ29tbWVudD5TY3JlZW5zaG90PC9leGlmOlVzZXJDb21tZW50PgogICAgICAgICA8ZXhpZjpQaXhlbFhEaW1lbnNpb24+Njg8L2V4aWY6UGl4ZWxYRGltZW5zaW9uPgogICAgICAgICA8ZXhpZjpQaXhlbFlEaW1lbnNpb24+NjA8L2V4aWY6UGl4ZWxZRGltZW5zaW9uPgogICAgICAgICA8dGlmZjpSZXNvbHV0aW9uVW5pdD4yPC90aWZmOlJlc29sdXRpb25Vbml0PgogICAgICAgICA8dGlmZjpYUmVzb2x1dGlvbj4xNDQvMTwvdGlmZjpYUmVzb2x1dGlvbj4KICAgICAgICAgPHRpZmY6WVJlc29sdXRpb24+MTQ0LzE8L3RpZmY6WVJlc29sdXRpb24+CiAgICAgICAgIDx0aWZmOk9yaWVudGF0aW9uPjE8L3RpZmY6T3JpZW50YXRpb24+CiAgICAgIDwvcmRmOkRlc2NyaXB0aW9uPgogICA8L3JkZjpSREY+CjwveDp4bXBtZXRhPgrInBAqAAAGNklEQVRoBe3aC0/cOhCG4UCXUuiFwv//fUjcWmjpDQqcPpa+yOtmEalO2aTakUZOso4z83o8ngS27u/vH7qN9AS2+6PNQSGwAdIEwqI5f/T04eGh+7XEit7d3ZW+W1tbXfTRm9f4I7uJlq3b29u9tmaNAvLz58/u69evvRpssVh0Ozs7pW0Hn8I5CCYvyta9vb1eWxtHA7m+vu4+fPhQFO1Xr151u7u7pW0Hn8K5iL69vS16c3PT7e/vdwcHByVC2M6HWv4IyPn5eXd8fFwGff36dRetB57Kscj48eNH9/3799K+ffu2QAADmFZGAUn4Ie4hL168KNFhFlrS7YPWeQ4Km0ERzZY+m4dkFBDJKGvwzZs3JW+g/O7du0HaQw987mtAyHNsN6GA8MFkDskoIKLAYMINkJcvXxYQoLx//35o/LVfE8nsTnSzOYCGjBsFpI0QYEQHGIeHh0Pjr/0aICTLJhHClyFZWEs6p0WSaHOcG799+9bZZT5//lxa4Zjc0a5JDzQb0VUhmrH/VitfeDZlE2Vz7G6fuwDDdhTlWHQISLZcrdBTl4B0dXW1NDYDklu06wKyZNQTTkqEgGH2KaIgJWrqMTgPxMXFRWnRBiOFTt1XZBgXCHu/UJ2D9BEChqUACLUcQKlFn48fPxYFRgRxNMui7us6YGqUo6Oj+qdJHy84lfwBhLXFmaEqzkzbZVLt8cx5ynf7fHTSXj9iXNllAElUAAEI5Wwt+phxu4poIZZE9PLysqPGE2FzlJURosQVCbUEHDCU1Fnb0tFHrpk1kHrZWDIiQ6JUfI0Ry+XTp0+/RdaYMdbdd7g6WbdVa3z+BkgDfwOkAbKQMyRGO4Xt07nEmGKt7i/XpGhLjaJ/xkgy1c94Sbj1GFM/XjAaCDuEROocDBVoXozihJ3Fdht13b1R5TsoxHiSMzCAzUVKhHBI3ZGtUpvj2hGAOB3lKMfdq3UPmCLENePODkgbIZyOtlDM/tnZWa/uVcjlXSZVKxAAafWZVYTUQMys8yiHapFbAEg1a/bzPVWbZZI6RnGnr35zkT6HMLiGw5EkzjhjGYACnFkHjNNR5xQAcBR2omdWQOJYDYPT0cDQghQYcdrnw2giKy0oIM4KSIyvHV91bLYJB6lznw6jq+6b0/XyPSS1hW1VBNRaO5PvIb6F+C4iAiRgyda3lFqAFlHRNh/Vfad03H8xy86SpZK2NhYQMKKiJDC89tcCgM8ENLml/n2qx0tfzDgnSkSMFpRa/A6GT4hUFIgMS0ck1CJ6jAHG2LfmepznPi4Rot7w6v7ly5el0rwFkq9hii/3WFr6cFyEOc61bL0SbrtbPbeTY5732wcis56dwXEtag2/mXGJlPN1MSaCqKXltznKEhCzLvw5rRX2tYiEwBAtRB4BTpvcIiJEzBxlCQiH1SXywdAnRLPOWUsjy0D/qHxhDEtvtkDMYtY9RzlntkWHKBkjXvqy3MbcN6W+y0liSpatyZYNkAb8BkgDpHwgkjNsn/KGHCIx2jod1yKR+o3mW4kdJupPEJJptuPsQPUYUz/uX/+TRDnHWZ8Qs7XGCdfVGXYRLWApywFVtfoNEOO5BkoLNuNNsV0CYrvlDMdVo3adWgDyzuLFTstRu0pUBGU7BgQsgGcLBABOC/u0NRCzf3p6WvTk5KQ4a2v2J88UdEAAFCCzi5CEPSeIGTWzHJIrask1UQCefsp51avWEomKNm+6QIEyF+mXDIPB4BA4HEn4xxnXs4yA1Nd/B6lq819CnE9eAWm2QAKDw1H5pJa84uvLcYDyH4ha14GiGQ80gOYi/bb7lLDmWLZd0QOIt15LQ7tKAnjV73/zOjuzxE1wdNUzR02dwQCxA0m6HgSSaJiqsFUJoa6ye7L3sQkaDQQEAwOiDQzXpygmUM3EXnAsYUDadBDb/whIIkSuMHAgZdAptWxjLzWBzv83IADINdmJOJ4ls4r4uuHUNjtOfZTIbu0bFSFgKMIk0AwITrQdfArnJkpEiAyqDFAOADMko4CIBkCQNjABBqin7FJDBjzHtSwRbaIbEH60svWr03Kx0faozkPbwJQYdGjg6rbJHLKfrSYxbWvcKCDtzf/i+XQLiDXR3gBpwG+ANED+A8I8opteDCP0AAAAAElFTkSuQmCC;movable=1;resizable=1;rotatable=1;deletable=1;editable=1;locked=0;connectable=1;container=0;" parent="jvcADhcVPLt3B4X78LWL-1" vertex="1">
          <mxGeometry x="304.7499999999999" y="220.26" width="27" height="27" as="geometry" />
        </mxCell>
        <mxCell id="QUxNRha6htBDsQ1S0EIg-1" value="&lt;span style=&quot;font-family: Aptos, sans-serif; font-size: 14px; text-align: center;&quot;&gt;DHT11&lt;/span&gt;" style="html=1;whiteSpace=wrap;fontStyle=1;align=left;strokeColor=#00FF00;" parent="jvcADhcVPLt3B4X78LWL-1" vertex="1">
          <mxGeometry x="174.75" y="207.88000000000002" width="170" height="52.5" as="geometry" />
        </mxCell>
        <mxCell id="QUxNRha6htBDsQ1S0EIg-2" value="" style="shape=image;verticalLabelPosition=bottom;labelBackgroundColor=default;verticalAlign=top;aspect=fixed;imageAspect=0;image=data:image/png,iVBORw0KGgoAAAANSUhEUgAAAEQAAAA8CAYAAADfYhweAAAMP2lDQ1BJQ0MgUHJvZmlsZQAASImVVwdYU8kWnltSIbQAAlJCb4KIlABSQmihdwRRCUmAUGIMBBU7uqjg2sUCNnRVRMEKiAVF7CyKvS8WFJR1sWBX3qSArvvK9+b75s5//znznzPnztx7BwD1E1yxOBfVACBPVCCJDfZnjE1OYZC6AQmQAQUYAJzLyxezoqPDASyD7d/LuxsAkbVXHWRa/+z/r0WTL8jnAYBEQ5zOz+flQXwQALySJ5YUAECU8eZTCsQyDCvQlsAAIV4ow5kKXCnD6Qq8V24TH8uGuBUAsiqXK8kEQO0y5BmFvEyoodYHsZOILxQBoM6A2CcvbxIf4jSIbaCNGGKZPjP9B53Mv2mmD2lyuZlDWDEXeSEHCPPFudxp/2c6/nfJy5UO+rCCVTVLEhIrmzPM262cSWEyrApxryg9MgpiLYg/CPlye4hRapY0JEFhjxry8tkwZ0AXYic+NyAMYkOIg0S5keFKPj1DGMSBGK4QdKqwgBMPsR7ECwX5gXFKm82SSbFKX2h9hoTNUvLnuBK5X5mvB9KcBJZS/3WWgKPUx9SKsuKTIKZCbFEoTIyEWA1ix/ycuDClzZiiLHbkoI1EGiuL3wLiWIEo2F+hjxVmSIJilfalefmD88U2Zwk5kUq8vyArPkSRH6yVx5XHD+eCXRaIWAmDOoL8seGDc+ELAgIVc8e6BaKEOKXOB3GBf6xiLE4V50Yr7XEzQW6wjDeD2CW/ME45Fk8sgAtSoY9niAui4xVx4kXZ3NBoRTz4MhAO2CAAMIAU1nQwCWQDYXtvQy+8U/QEAS6QgEwgAA5KZnBEkrxHBK9xoAj8CZEA5A+N85f3CkAh5L8OsYqrA8iQ9xbKR+SApxDngTCQC++l8lGiIW+J4AlkhP/wzoWVB+PNhVXW/+/5QfY7w4JMuJKRDnpkqA9aEgOJAcQQYhDRFjfAfXAvPBxe/WB1xpm4x+A8vtsTnhI6CI8I1wmdhNsThcWSn6KMAJ1QP0iZi/Qfc4FbQU1X3B/3hupQGdfFDYAD7gL9sHBf6NkVsmxl3LKsMH7S/tsMfngaSjuKEwWlDKP4UWx+Hqlmp+Y6pCLL9Y/5UcSaPpRv9lDPz/7ZP2SfD9uwny2xhdgB7Cx2EjuPHcUaAANrxhqxNuyYDA+trify1TXoLVYeTw7UEf7D3+CTlWUy36nGqcfpi6KvQDBV9o4G7EniaRJhZlYBgwW/CAIGR8RzHMFwdnJ2AUD2fVG8vt7EyL8biG7bd27eHwB4Nw8MDBz5zoU2A7DPHW7/w985Gyb8dKgAcO4wTyopVHC47EKAbwl1uNP0gTEwBzZwPs7ADXgBPxAIQkEUiAfJYAKMPguucwmYAmaAuaAElIFlYDVYDzaBrWAn2AP2gwZwFJwEZ8BFcBlcB3fh6ukCL0AfeAc+IwhCQmgIHdFHTBBLxB5xRpiIDxKIhCOxSDKShmQiIkSKzEDmIWXICmQ9sgWpRvYhh5GTyHmkA7mNPER6kNfIJxRDVVFt1Ai1QkeiTJSFhqHx6Hg0E52MFqHz0SXoWrQK3Y3WoyfRi+h1tBN9gfZjAFPBdDFTzAFjYmwsCkvBMjAJNgsrxcqxKqwWa4LP+SrWifViH3EiTscZuANcwSF4As7DJ+Oz8MX4enwnXo+34lfxh3gf/o1AIxgS7AmeBA5hLCGTMIVQQignbCccIpyGe6mL8I5IJOoSrYnucC8mE7OJ04mLiRuIdcQTxA7iY2I/iUTSJ9mTvElRJC6pgFRCWkfaTWomXSF1kT6QVcgmZGdyEDmFLCIXk8vJu8jHyVfIz8ifKRoUS4onJYrCp0yjLKVsozRRLlG6KJ+pmlRrqjc1nppNnUtdS62lnqbeo75RUVExU/FQiVERqsxRWauyV+WcykOVj6paqnaqbNVUVanqEtUdqidUb6u+odFoVjQ/WgqtgLaEVk07RXtA+6BGV3NU46jx1WarVajVq11Re6lOUbdUZ6lPUC9SL1c/oH5JvVeDomGlwdbgaszSqNA4rHFTo1+TrjlKM0ozT3Ox5i7N85rdWiQtK61ALb7WfK2tWqe0HtMxujmdTefR59G30U/Tu7SJ2tbaHO1s7TLtPdrt2n06WjouOok6U3UqdI7pdOpiula6HN1c3aW6+3Vv6H4aZjSMNUwwbNGw2mFXhr3XG67npyfQK9Wr07uu90mfoR+on6O/XL9B/74BbmBnEGMwxWCjwWmD3uHaw72G84aXDt8//I4hamhnGGs43XCrYZthv5GxUbCR2Gid0SmjXmNdYz/jbONVxseNe0zoJj4mQpNVJs0mzxk6DBYjl7GW0croMzU0DTGVmm4xbTf9bGZtlmBWbFZndt+cas40zzBfZd5i3mdhYhFhMcOixuKOJcWSaZllucbyrOV7K2urJKsFVg1W3dZ61hzrIusa63s2NBtfm8k2VTbXbIm2TNsc2w22l+1QO1e7LLsKu0v2qL2bvdB+g33HCMIIjxGiEVUjbjqoOrAcCh1qHB466jqGOxY7Nji+HGkxMmXk8pFnR35zcnXKddrmdHeU1qjQUcWjmka9drZz5jlXOF8bTRsdNHr26MbRr1zsXQQuG11uudJdI1wXuLa4fnVzd5O41br1uFu4p7lXut9kajOjmYuZ5zwIHv4esz2Oenz0dPMs8Nzv+ZeXg1eO1y6v7jHWYwRjto157G3mzfXe4t3pw/BJ89ns0+lr6sv1rfJ95Gfux/fb7veMZcvKZu1mvfR38pf4H/J/z/Zkz2SfCMACggNKA9oDtQITAtcHPggyC8oMqgnqC3YNnh58IoQQEhayPOQmx4jD41Rz+kLdQ2eGtoaphsWFrQ97FG4XLglvikAjQiNWRtyLtIwURTZEgShO1Mqo+9HW0ZOjj8QQY6JjKmKexo6KnRF7No4eNzFuV9y7eP/4pfF3E2wSpAktieqJqYnVie+TApJWJHWOHTl25tiLyQbJwuTGFFJKYsr2lP5xgeNWj+tKdU0tSb0x3nr81PHnJxhMyJ1wbKL6RO7EA2mEtKS0XWlfuFHcKm5/Oie9Mr2Px+at4b3g+/FX8XsE3oIVgmcZ3hkrMrozvTNXZvZk+WaVZ/UK2cL1wlfZIdmbst/nROXsyBnITcqtyyPnpeUdFmmJckStk4wnTZ3UIbYXl4g7J3tOXj25TxIm2Z6P5I/PbyzQhj/ybVIb6S/Sh4U+hRWFH6YkTjkwVXOqaGrbNLtpi6Y9Kwoq+m06Pp03vWWG6Yy5Mx7OZM3cMguZlT6rZbb57Pmzu+YEz9k5lzo3Z+7vxU7FK4rfzkua1zTfaP6c+Y9/Cf6lpkStRFJyc4HXgk0L8YXChe2LRi9at+hbKb/0QplTWXnZl8W8xRd+HfXr2l8HlmQsaV/qtnTjMuIy0bIby32X71yhuaJoxeOVESvrVzFWla56u3ri6vPlLuWb1lDXSNd0rg1f27jOYt2ydV/WZ62/XuFfUVdpWLmo8v0G/oYrG/021m4y2lS26dNm4eZbW4K31FdZVZVvJW4t3Pp0W+K2s78xf6vebrC9bPvXHaIdnTtjd7ZWu1dX7zLctbQGrZHW9OxO3X15T8CexlqH2i11unVle8Fe6d7n+9L23dgftr/lAPNA7UHLg5WH6IdK65H6afV9DVkNnY3JjR2HQw+3NHk1HTrieGTHUdOjFcd0ji09Tj0+//hAc1Fz/wnxid6TmScft0xsuXtq7KlrrTGt7afDTp87E3Tm1FnW2eZz3ueOnvc8f/gC80LDRbeL9W2ubYd+d/39ULtbe/0l90uNlz0uN3WM6Th+xffKyasBV89c41y7eD3yeseNhBu3bqbe7LzFv9V9O/f2qzuFdz7fnXOPcK/0vsb98geGD6r+sP2jrtOt89jDgIdtj+Ie3X3Me/ziSf6TL13zn9Kelj8zeVbd7dx9tCeo5/Lzcc+7XohffO4t+VPzz8qXNi8P/uX3V1vf2L6uV5JXA68Xv9F/s+Oty9uW/uj+B+/y3n1+X/pB/8POj8yPZz8lfXr2ecoX0pe1X22/Nn0L+3ZvIG9gQMyVcOW/AhisaEYGAK93AEBLBoAOz2fUcYrzn7wgijOrHIH/hBVnRHlxA6AW/r/H9MK/m5sA7N0Gj19QXz0VgGgaAPEeAB09eqgOntXk50pZIcJzwOb4r+l56eDfFMWZ84e4f26BTNUF/Nz+C9nzfEbVa0KNAAAAlmVYSWZNTQAqAAAACAAFARIAAwAAAAEAAQAAARoABQAAAAEAAABKARsABQAAAAEAAABSASgAAwAAAAEAAgAAh2kABAAAAAEAAABaAAAAAAAAAJAAAAABAAAAkAAAAAEAA5KGAAcAAAASAAAAhKACAAQAAAABAAAARKADAAQAAAABAAAAPAAAAABBU0NJSQAAAFNjcmVlbnNob3QEKSxcAAAACXBIWXMAABYlAAAWJQFJUiTwAAAC2WlUWHRYTUw6Y29tLmFkb2JlLnhtcAAAAAAAPHg6eG1wbWV0YSB4bWxuczp4PSJhZG9iZTpuczptZXRhLyIgeDp4bXB0az0iWE1QIENvcmUgNi4wLjAiPgogICA8cmRmOlJERiB4bWxuczpyZGY9Imh0dHA6Ly93d3cudzMub3JnLzE5OTkvMDIvMjItcmRmLXN5bnRheC1ucyMiPgogICAgICA8cmRmOkRlc2NyaXB0aW9uIHJkZjphYm91dD0iIgogICAgICAgICAgICB4bWxuczpleGlmPSJodHRwOi8vbnMuYWRvYmUuY29tL2V4aWYvMS4wLyIKICAgICAgICAgICAgeG1sbnM6dGlmZj0iaHR0cDovL25zLmFkb2JlLmNvbS90aWZmLzEuMC8iPgogICAgICAgICA8ZXhpZjpVc2VyQ29tbWVudD5TY3JlZW5zaG90PC9leGlmOlVzZXJDb21tZW50PgogICAgICAgICA8ZXhpZjpQaXhlbFhEaW1lbnNpb24+Njg8L2V4aWY6UGl4ZWxYRGltZW5zaW9uPgogICAgICAgICA8ZXhpZjpQaXhlbFlEaW1lbnNpb24+NjA8L2V4aWY6UGl4ZWxZRGltZW5zaW9uPgogICAgICAgICA8dGlmZjpSZXNvbHV0aW9uVW5pdD4yPC90aWZmOlJlc29sdXRpb25Vbml0PgogICAgICAgICA8dGlmZjpYUmVzb2x1dGlvbj4xNDQvMTwvdGlmZjpYUmVzb2x1dGlvbj4KICAgICAgICAgPHRpZmY6WVJlc29sdXRpb24+MTQ0LzE8L3RpZmY6WVJlc29sdXRpb24+CiAgICAgICAgIDx0aWZmOk9yaWVudGF0aW9uPjE8L3RpZmY6T3JpZW50YXRpb24+CiAgICAgIDwvcmRmOkRlc2NyaXB0aW9uPgogICA8L3JkZjpSREY+CjwveDp4bXBtZXRhPgrInBAqAAAGNklEQVRoBe3aC0/cOhCG4UCXUuiFwv//fUjcWmjpDQqcPpa+yOtmEalO2aTakUZOso4z83o8ngS27u/vH7qN9AS2+6PNQSGwAdIEwqI5f/T04eGh+7XEit7d3ZW+W1tbXfTRm9f4I7uJlq3b29u9tmaNAvLz58/u69evvRpssVh0Ozs7pW0Hn8I5CCYvyta9vb1eWxtHA7m+vu4+fPhQFO1Xr151u7u7pW0Hn8K5iL69vS16c3PT7e/vdwcHByVC2M6HWv4IyPn5eXd8fFwGff36dRetB57Kscj48eNH9/3799K+ffu2QAADmFZGAUn4Ie4hL168KNFhFlrS7YPWeQ4Km0ERzZY+m4dkFBDJKGvwzZs3JW+g/O7du0HaQw987mtAyHNsN6GA8MFkDskoIKLAYMINkJcvXxYQoLx//35o/LVfE8nsTnSzOYCGjBsFpI0QYEQHGIeHh0Pjr/0aICTLJhHClyFZWEs6p0WSaHOcG799+9bZZT5//lxa4Zjc0a5JDzQb0VUhmrH/VitfeDZlE2Vz7G6fuwDDdhTlWHQISLZcrdBTl4B0dXW1NDYDklu06wKyZNQTTkqEgGH2KaIgJWrqMTgPxMXFRWnRBiOFTt1XZBgXCHu/UJ2D9BEChqUACLUcQKlFn48fPxYFRgRxNMui7us6YGqUo6Oj+qdJHy84lfwBhLXFmaEqzkzbZVLt8cx5ynf7fHTSXj9iXNllAElUAAEI5Wwt+phxu4poIZZE9PLysqPGE2FzlJURosQVCbUEHDCU1Fnb0tFHrpk1kHrZWDIiQ6JUfI0Ry+XTp0+/RdaYMdbdd7g6WbdVa3z+BkgDfwOkAbKQMyRGO4Xt07nEmGKt7i/XpGhLjaJ/xkgy1c94Sbj1GFM/XjAaCDuEROocDBVoXozihJ3Fdht13b1R5TsoxHiSMzCAzUVKhHBI3ZGtUpvj2hGAOB3lKMfdq3UPmCLENePODkgbIZyOtlDM/tnZWa/uVcjlXSZVKxAAafWZVYTUQMys8yiHapFbAEg1a/bzPVWbZZI6RnGnr35zkT6HMLiGw5EkzjhjGYACnFkHjNNR5xQAcBR2omdWQOJYDYPT0cDQghQYcdrnw2giKy0oIM4KSIyvHV91bLYJB6lznw6jq+6b0/XyPSS1hW1VBNRaO5PvIb6F+C4iAiRgyda3lFqAFlHRNh/Vfad03H8xy86SpZK2NhYQMKKiJDC89tcCgM8ENLml/n2qx0tfzDgnSkSMFpRa/A6GT4hUFIgMS0ck1CJ6jAHG2LfmepznPi4Rot7w6v7ly5el0rwFkq9hii/3WFr6cFyEOc61bL0SbrtbPbeTY5732wcis56dwXEtag2/mXGJlPN1MSaCqKXltznKEhCzLvw5rRX2tYiEwBAtRB4BTpvcIiJEzBxlCQiH1SXywdAnRLPOWUsjy0D/qHxhDEtvtkDMYtY9RzlntkWHKBkjXvqy3MbcN6W+y0liSpatyZYNkAb8BkgDpHwgkjNsn/KGHCIx2jod1yKR+o3mW4kdJupPEJJptuPsQPUYUz/uX/+TRDnHWZ8Qs7XGCdfVGXYRLWApywFVtfoNEOO5BkoLNuNNsV0CYrvlDMdVo3adWgDyzuLFTstRu0pUBGU7BgQsgGcLBABOC/u0NRCzf3p6WvTk5KQ4a2v2J88UdEAAFCCzi5CEPSeIGTWzHJIrask1UQCefsp51avWEomKNm+6QIEyF+mXDIPB4BA4HEn4xxnXs4yA1Nd/B6lq819CnE9eAWm2QAKDw1H5pJa84uvLcYDyH4ha14GiGQ80gOYi/bb7lLDmWLZd0QOIt15LQ7tKAnjV73/zOjuzxE1wdNUzR02dwQCxA0m6HgSSaJiqsFUJoa6ye7L3sQkaDQQEAwOiDQzXpygmUM3EXnAsYUDadBDb/whIIkSuMHAgZdAptWxjLzWBzv83IADINdmJOJ4ls4r4uuHUNjtOfZTIbu0bFSFgKMIk0AwITrQdfArnJkpEiAyqDFAOADMko4CIBkCQNjABBqin7FJDBjzHtSwRbaIbEH60svWr03Kx0faozkPbwJQYdGjg6rbJHLKfrSYxbWvcKCDtzf/i+XQLiDXR3gBpwG+ANED+A8I8opteDCP0AAAAAElFTkSuQmCC;movable=1;resizable=1;rotatable=1;deletable=1;editable=1;locked=0;connectable=1;container=0;" parent="jvcADhcVPLt3B4X78LWL-1" vertex="1">
          <mxGeometry x="304.74999999999994" y="289.23" width="27" height="27" as="geometry" />
        </mxCell>
        <mxCell id="FaoGSX9svCNC1m7Fcghs-4" value="&lt;b&gt;Linux Debian&lt;/b&gt;" style="text;html=1;align=center;verticalAlign=middle;resizable=0;points=[];autosize=1;strokeColor=none;fillColor=none;" parent="jvcADhcVPLt3B4X78LWL-1" vertex="1">
          <mxGeometry x="454.74" y="207.88" width="100" height="30" as="geometry" />
        </mxCell>
        <mxCell id="yi7BQN3zshPx02qinX9N-60" style="edgeStyle=orthogonalEdgeStyle;rounded=0;orthogonalLoop=1;jettySize=auto;html=1;exitX=1;exitY=0.5;exitDx=0;exitDy=0;entryX=1;entryY=0.75;entryDx=0;entryDy=0;" parent="jvcADhcVPLt3B4X78LWL-1" source="FaoGSX9svCNC1m7Fcghs-10" target="jvcADhcVPLt3B4X78LWL-46" edge="1">
          <mxGeometry relative="1" as="geometry" />
        </mxCell>
        <mxCell id="FaoGSX9svCNC1m7Fcghs-10" value="&lt;span style=&quot;text-wrap: nowrap;&quot;&gt;&lt;font style=&quot;font-size: 12px;&quot;&gt;PORT 8006&lt;/font&gt;&lt;/span&gt;" style="html=1;whiteSpace=wrap;fontStyle=1;align=left;fontSize=12;strokeColor=#00FF00;" parent="jvcADhcVPLt3B4X78LWL-1" vertex="1">
          <mxGeometry x="448.41999999999985" y="300" width="112.67" height="40" as="geometry" />
        </mxCell>
        <mxCell id="FaoGSX9svCNC1m7Fcghs-36" value="Route Print" style="html=1;whiteSpace=wrap;fontStyle=1;align=left;strokeColor=#00ff00;" parent="jvcADhcVPLt3B4X78LWL-1" vertex="1">
          <mxGeometry x="883.9899999999998" y="338.51" width="112.67" height="40" as="geometry" />
        </mxCell>
        <mxCell id="FaoGSX9svCNC1m7Fcghs-37" value="" style="shape=image;verticalLabelPosition=bottom;labelBackgroundColor=default;verticalAlign=top;aspect=fixed;imageAspect=0;image=data:image/png,iVBORw0KGgoAAAANSUhEUgAAAEQAAAA8CAYAAADfYhweAAAMP2lDQ1BJQ0MgUHJvZmlsZQAASImVVwdYU8kWnltSIbQAAlJCb4KIlABSQmihdwRRCUmAUGIMBBU7uqjg2sUCNnRVRMEKiAVF7CyKvS8WFJR1sWBX3qSArvvK9+b75s5//znznzPnztx7BwD1E1yxOBfVACBPVCCJDfZnjE1OYZC6AQmQAQUYAJzLyxezoqPDASyD7d/LuxsAkbVXHWRa/+z/r0WTL8jnAYBEQ5zOz+flQXwQALySJ5YUAECU8eZTCsQyDCvQlsAAIV4ow5kKXCnD6Qq8V24TH8uGuBUAsiqXK8kEQO0y5BmFvEyoodYHsZOILxQBoM6A2CcvbxIf4jSIbaCNGGKZPjP9B53Mv2mmD2lyuZlDWDEXeSEHCPPFudxp/2c6/nfJy5UO+rCCVTVLEhIrmzPM262cSWEyrApxryg9MgpiLYg/CPlye4hRapY0JEFhjxry8tkwZ0AXYic+NyAMYkOIg0S5keFKPj1DGMSBGK4QdKqwgBMPsR7ECwX5gXFKm82SSbFKX2h9hoTNUvLnuBK5X5mvB9KcBJZS/3WWgKPUx9SKsuKTIKZCbFEoTIyEWA1ix/ycuDClzZiiLHbkoI1EGiuL3wLiWIEo2F+hjxVmSIJilfalefmD88U2Zwk5kUq8vyArPkSRH6yVx5XHD+eCXRaIWAmDOoL8seGDc+ELAgIVc8e6BaKEOKXOB3GBf6xiLE4V50Yr7XEzQW6wjDeD2CW/ME45Fk8sgAtSoY9niAui4xVx4kXZ3NBoRTz4MhAO2CAAMIAU1nQwCWQDYXtvQy+8U/QEAS6QgEwgAA5KZnBEkrxHBK9xoAj8CZEA5A+N85f3CkAh5L8OsYqrA8iQ9xbKR+SApxDngTCQC++l8lGiIW+J4AlkhP/wzoWVB+PNhVXW/+/5QfY7w4JMuJKRDnpkqA9aEgOJAcQQYhDRFjfAfXAvPBxe/WB1xpm4x+A8vtsTnhI6CI8I1wmdhNsThcWSn6KMAJ1QP0iZi/Qfc4FbQU1X3B/3hupQGdfFDYAD7gL9sHBf6NkVsmxl3LKsMH7S/tsMfngaSjuKEwWlDKP4UWx+Hqlmp+Y6pCLL9Y/5UcSaPpRv9lDPz/7ZP2SfD9uwny2xhdgB7Cx2EjuPHcUaAANrxhqxNuyYDA+trify1TXoLVYeTw7UEf7D3+CTlWUy36nGqcfpi6KvQDBV9o4G7EniaRJhZlYBgwW/CAIGR8RzHMFwdnJ2AUD2fVG8vt7EyL8biG7bd27eHwB4Nw8MDBz5zoU2A7DPHW7/w985Gyb8dKgAcO4wTyopVHC47EKAbwl1uNP0gTEwBzZwPs7ADXgBPxAIQkEUiAfJYAKMPguucwmYAmaAuaAElIFlYDVYDzaBrWAn2AP2gwZwFJwEZ8BFcBlcB3fh6ukCL0AfeAc+IwhCQmgIHdFHTBBLxB5xRpiIDxKIhCOxSDKShmQiIkSKzEDmIWXICmQ9sgWpRvYhh5GTyHmkA7mNPER6kNfIJxRDVVFt1Ai1QkeiTJSFhqHx6Hg0E52MFqHz0SXoWrQK3Y3WoyfRi+h1tBN9gfZjAFPBdDFTzAFjYmwsCkvBMjAJNgsrxcqxKqwWa4LP+SrWifViH3EiTscZuANcwSF4As7DJ+Oz8MX4enwnXo+34lfxh3gf/o1AIxgS7AmeBA5hLCGTMIVQQignbCccIpyGe6mL8I5IJOoSrYnucC8mE7OJ04mLiRuIdcQTxA7iY2I/iUTSJ9mTvElRJC6pgFRCWkfaTWomXSF1kT6QVcgmZGdyEDmFLCIXk8vJu8jHyVfIz8ifKRoUS4onJYrCp0yjLKVsozRRLlG6KJ+pmlRrqjc1nppNnUtdS62lnqbeo75RUVExU/FQiVERqsxRWauyV+WcykOVj6paqnaqbNVUVanqEtUdqidUb6u+odFoVjQ/WgqtgLaEVk07RXtA+6BGV3NU46jx1WarVajVq11Re6lOUbdUZ6lPUC9SL1c/oH5JvVeDomGlwdbgaszSqNA4rHFTo1+TrjlKM0ozT3Ox5i7N85rdWiQtK61ALb7WfK2tWqe0HtMxujmdTefR59G30U/Tu7SJ2tbaHO1s7TLtPdrt2n06WjouOok6U3UqdI7pdOpiula6HN1c3aW6+3Vv6H4aZjSMNUwwbNGw2mFXhr3XG67npyfQK9Wr07uu90mfoR+on6O/XL9B/74BbmBnEGMwxWCjwWmD3uHaw72G84aXDt8//I4hamhnGGs43XCrYZthv5GxUbCR2Gid0SmjXmNdYz/jbONVxseNe0zoJj4mQpNVJs0mzxk6DBYjl7GW0croMzU0DTGVmm4xbTf9bGZtlmBWbFZndt+cas40zzBfZd5i3mdhYhFhMcOixuKOJcWSaZllucbyrOV7K2urJKsFVg1W3dZ61hzrIusa63s2NBtfm8k2VTbXbIm2TNsc2w22l+1QO1e7LLsKu0v2qL2bvdB+g33HCMIIjxGiEVUjbjqoOrAcCh1qHB466jqGOxY7Nji+HGkxMmXk8pFnR35zcnXKddrmdHeU1qjQUcWjmka9drZz5jlXOF8bTRsdNHr26MbRr1zsXQQuG11uudJdI1wXuLa4fnVzd5O41br1uFu4p7lXut9kajOjmYuZ5zwIHv4esz2Oenz0dPMs8Nzv+ZeXg1eO1y6v7jHWYwRjto157G3mzfXe4t3pw/BJ89ns0+lr6sv1rfJ95Gfux/fb7veMZcvKZu1mvfR38pf4H/J/z/Zkz2SfCMACggNKA9oDtQITAtcHPggyC8oMqgnqC3YNnh58IoQQEhayPOQmx4jD41Rz+kLdQ2eGtoaphsWFrQ97FG4XLglvikAjQiNWRtyLtIwURTZEgShO1Mqo+9HW0ZOjj8QQY6JjKmKexo6KnRF7No4eNzFuV9y7eP/4pfF3E2wSpAktieqJqYnVie+TApJWJHWOHTl25tiLyQbJwuTGFFJKYsr2lP5xgeNWj+tKdU0tSb0x3nr81PHnJxhMyJ1wbKL6RO7EA2mEtKS0XWlfuFHcKm5/Oie9Mr2Px+at4b3g+/FX8XsE3oIVgmcZ3hkrMrozvTNXZvZk+WaVZ/UK2cL1wlfZIdmbst/nROXsyBnITcqtyyPnpeUdFmmJckStk4wnTZ3UIbYXl4g7J3tOXj25TxIm2Z6P5I/PbyzQhj/ybVIb6S/Sh4U+hRWFH6YkTjkwVXOqaGrbNLtpi6Y9Kwoq+m06Pp03vWWG6Yy5Mx7OZM3cMguZlT6rZbb57Pmzu+YEz9k5lzo3Z+7vxU7FK4rfzkua1zTfaP6c+Y9/Cf6lpkStRFJyc4HXgk0L8YXChe2LRi9at+hbKb/0QplTWXnZl8W8xRd+HfXr2l8HlmQsaV/qtnTjMuIy0bIby32X71yhuaJoxeOVESvrVzFWla56u3ri6vPlLuWb1lDXSNd0rg1f27jOYt2ydV/WZ62/XuFfUVdpWLmo8v0G/oYrG/021m4y2lS26dNm4eZbW4K31FdZVZVvJW4t3Pp0W+K2s78xf6vebrC9bPvXHaIdnTtjd7ZWu1dX7zLctbQGrZHW9OxO3X15T8CexlqH2i11unVle8Fe6d7n+9L23dgftr/lAPNA7UHLg5WH6IdK65H6afV9DVkNnY3JjR2HQw+3NHk1HTrieGTHUdOjFcd0ji09Tj0+//hAc1Fz/wnxid6TmScft0xsuXtq7KlrrTGt7afDTp87E3Tm1FnW2eZz3ueOnvc8f/gC80LDRbeL9W2ubYd+d/39ULtbe/0l90uNlz0uN3WM6Th+xffKyasBV89c41y7eD3yeseNhBu3bqbe7LzFv9V9O/f2qzuFdz7fnXOPcK/0vsb98geGD6r+sP2jrtOt89jDgIdtj+Ie3X3Me/ziSf6TL13zn9Kelj8zeVbd7dx9tCeo5/Lzcc+7XohffO4t+VPzz8qXNi8P/uX3V1vf2L6uV5JXA68Xv9F/s+Oty9uW/uj+B+/y3n1+X/pB/8POj8yPZz8lfXr2ecoX0pe1X22/Nn0L+3ZvIG9gQMyVcOW/AhisaEYGAK93AEBLBoAOz2fUcYrzn7wgijOrHIH/hBVnRHlxA6AW/r/H9MK/m5sA7N0Gj19QXz0VgGgaAPEeAB09eqgOntXk50pZIcJzwOb4r+l56eDfFMWZ84e4f26BTNUF/Nz+C9nzfEbVa0KNAAAAlmVYSWZNTQAqAAAACAAFARIAAwAAAAEAAQAAARoABQAAAAEAAABKARsABQAAAAEAAABSASgAAwAAAAEAAgAAh2kABAAAAAEAAABaAAAAAAAAAJAAAAABAAAAkAAAAAEAA5KGAAcAAAASAAAAhKACAAQAAAABAAAARKADAAQAAAABAAAAPAAAAABBU0NJSQAAAFNjcmVlbnNob3QEKSxcAAAACXBIWXMAABYlAAAWJQFJUiTwAAAC2WlUWHRYTUw6Y29tLmFkb2JlLnhtcAAAAAAAPHg6eG1wbWV0YSB4bWxuczp4PSJhZG9iZTpuczptZXRhLyIgeDp4bXB0az0iWE1QIENvcmUgNi4wLjAiPgogICA8cmRmOlJERiB4bWxuczpyZGY9Imh0dHA6Ly93d3cudzMub3JnLzE5OTkvMDIvMjItcmRmLXN5bnRheC1ucyMiPgogICAgICA8cmRmOkRlc2NyaXB0aW9uIHJkZjphYm91dD0iIgogICAgICAgICAgICB4bWxuczpleGlmPSJodHRwOi8vbnMuYWRvYmUuY29tL2V4aWYvMS4wLyIKICAgICAgICAgICAgeG1sbnM6dGlmZj0iaHR0cDovL25zLmFkb2JlLmNvbS90aWZmLzEuMC8iPgogICAgICAgICA8ZXhpZjpVc2VyQ29tbWVudD5TY3JlZW5zaG90PC9leGlmOlVzZXJDb21tZW50PgogICAgICAgICA8ZXhpZjpQaXhlbFhEaW1lbnNpb24+Njg8L2V4aWY6UGl4ZWxYRGltZW5zaW9uPgogICAgICAgICA8ZXhpZjpQaXhlbFlEaW1lbnNpb24+NjA8L2V4aWY6UGl4ZWxZRGltZW5zaW9uPgogICAgICAgICA8dGlmZjpSZXNvbHV0aW9uVW5pdD4yPC90aWZmOlJlc29sdXRpb25Vbml0PgogICAgICAgICA8dGlmZjpYUmVzb2x1dGlvbj4xNDQvMTwvdGlmZjpYUmVzb2x1dGlvbj4KICAgICAgICAgPHRpZmY6WVJlc29sdXRpb24+MTQ0LzE8L3RpZmY6WVJlc29sdXRpb24+CiAgICAgICAgIDx0aWZmOk9yaWVudGF0aW9uPjE8L3RpZmY6T3JpZW50YXRpb24+CiAgICAgIDwvcmRmOkRlc2NyaXB0aW9uPgogICA8L3JkZjpSREY+CjwveDp4bXBtZXRhPgrInBAqAAAGNklEQVRoBe3aC0/cOhCG4UCXUuiFwv//fUjcWmjpDQqcPpa+yOtmEalO2aTakUZOso4z83o8ngS27u/vH7qN9AS2+6PNQSGwAdIEwqI5f/T04eGh+7XEit7d3ZW+W1tbXfTRm9f4I7uJlq3b29u9tmaNAvLz58/u69evvRpssVh0Ozs7pW0Hn8I5CCYvyta9vb1eWxtHA7m+vu4+fPhQFO1Xr151u7u7pW0Hn8K5iL69vS16c3PT7e/vdwcHByVC2M6HWv4IyPn5eXd8fFwGff36dRetB57Kscj48eNH9/3799K+ffu2QAADmFZGAUn4Ie4hL168KNFhFlrS7YPWeQ4Km0ERzZY+m4dkFBDJKGvwzZs3JW+g/O7du0HaQw987mtAyHNsN6GA8MFkDskoIKLAYMINkJcvXxYQoLx//35o/LVfE8nsTnSzOYCGjBsFpI0QYEQHGIeHh0Pjr/0aICTLJhHClyFZWEs6p0WSaHOcG799+9bZZT5//lxa4Zjc0a5JDzQb0VUhmrH/VitfeDZlE2Vz7G6fuwDDdhTlWHQISLZcrdBTl4B0dXW1NDYDklu06wKyZNQTTkqEgGH2KaIgJWrqMTgPxMXFRWnRBiOFTt1XZBgXCHu/UJ2D9BEChqUACLUcQKlFn48fPxYFRgRxNMui7us6YGqUo6Oj+qdJHy84lfwBhLXFmaEqzkzbZVLt8cx5ynf7fHTSXj9iXNllAElUAAEI5Wwt+phxu4poIZZE9PLysqPGE2FzlJURosQVCbUEHDCU1Fnb0tFHrpk1kHrZWDIiQ6JUfI0Ry+XTp0+/RdaYMdbdd7g6WbdVa3z+BkgDfwOkAbKQMyRGO4Xt07nEmGKt7i/XpGhLjaJ/xkgy1c94Sbj1GFM/XjAaCDuEROocDBVoXozihJ3Fdht13b1R5TsoxHiSMzCAzUVKhHBI3ZGtUpvj2hGAOB3lKMfdq3UPmCLENePODkgbIZyOtlDM/tnZWa/uVcjlXSZVKxAAafWZVYTUQMys8yiHapFbAEg1a/bzPVWbZZI6RnGnr35zkT6HMLiGw5EkzjhjGYACnFkHjNNR5xQAcBR2omdWQOJYDYPT0cDQghQYcdrnw2giKy0oIM4KSIyvHV91bLYJB6lznw6jq+6b0/XyPSS1hW1VBNRaO5PvIb6F+C4iAiRgyda3lFqAFlHRNh/Vfad03H8xy86SpZK2NhYQMKKiJDC89tcCgM8ENLml/n2qx0tfzDgnSkSMFpRa/A6GT4hUFIgMS0ck1CJ6jAHG2LfmepznPi4Rot7w6v7ly5el0rwFkq9hii/3WFr6cFyEOc61bL0SbrtbPbeTY5732wcis56dwXEtag2/mXGJlPN1MSaCqKXltznKEhCzLvw5rRX2tYiEwBAtRB4BTpvcIiJEzBxlCQiH1SXywdAnRLPOWUsjy0D/qHxhDEtvtkDMYtY9RzlntkWHKBkjXvqy3MbcN6W+y0liSpatyZYNkAb8BkgDpHwgkjNsn/KGHCIx2jod1yKR+o3mW4kdJupPEJJptuPsQPUYUz/uX/+TRDnHWZ8Qs7XGCdfVGXYRLWApywFVtfoNEOO5BkoLNuNNsV0CYrvlDMdVo3adWgDyzuLFTstRu0pUBGU7BgQsgGcLBABOC/u0NRCzf3p6WvTk5KQ4a2v2J88UdEAAFCCzi5CEPSeIGTWzHJIrask1UQCefsp51avWEomKNm+6QIEyF+mXDIPB4BA4HEn4xxnXs4yA1Nd/B6lq819CnE9eAWm2QAKDw1H5pJa84uvLcYDyH4ha14GiGQ80gOYi/bb7lLDmWLZd0QOIt15LQ7tKAnjV73/zOjuzxE1wdNUzR02dwQCxA0m6HgSSaJiqsFUJoa6ye7L3sQkaDQQEAwOiDQzXpygmUM3EXnAsYUDadBDb/whIIkSuMHAgZdAptWxjLzWBzv83IADINdmJOJ4ls4r4uuHUNjtOfZTIbu0bFSFgKMIk0AwITrQdfArnJkpEiAyqDFAOADMko4CIBkCQNjABBqin7FJDBjzHtSwRbaIbEH60svWr03Kx0faozkPbwJQYdGjg6rbJHLKfrSYxbWvcKCDtzf/i+XQLiDXR3gBpwG+ANED+A8I8opteDCP0AAAAAElFTkSuQmCC;movable=1;resizable=1;rotatable=1;deletable=1;editable=1;locked=0;connectable=1;container=0;" parent="jvcADhcVPLt3B4X78LWL-1" vertex="1">
          <mxGeometry x="960.3399999999998" y="345.01" width="27" height="27" as="geometry" />
        </mxCell>
        <mxCell id="yi7BQN3zshPx02qinX9N-7" value="&lt;font style=&quot;vertical-align: inherit;&quot;&gt;&lt;font style=&quot;vertical-align: inherit;&quot;&gt;Cartes réseaux&lt;/font&gt;&lt;/font&gt;" style="verticalAlign=top;align=center;spacingTop=8;spacingLeft=2;spacingRight=12;shape=cube;size=10;direction=south;fontStyle=5;html=1;whiteSpace=wrap;strokeColor=#00ff00;" parent="jvcADhcVPLt3B4X78LWL-1" vertex="1">
          <mxGeometry x="850.16" y="150.75" width="180" height="177.76" as="geometry" />
        </mxCell>
        <mxCell id="yi7BQN3zshPx02qinX9N-8" value="&lt;span style=&quot;font-family: Aptos, sans-serif; font-size: 14px; text-align: center;&quot;&gt;Carte réseau VPN&lt;/span&gt;" style="html=1;whiteSpace=wrap;fontStyle=1;align=left;strokeColor=#00FF00;" parent="jvcADhcVPLt3B4X78LWL-1" vertex="1">
          <mxGeometry x="855.3299999999999" y="194.76" width="154.83" height="52.5" as="geometry" />
        </mxCell>
        <mxCell id="yi7BQN3zshPx02qinX9N-10" value="&lt;span style=&quot;font-size: 15px;&quot;&gt;&lt;b&gt;Switch Coeur 3 (10.129.253.100/16)&lt;/b&gt;&lt;/span&gt;" style="verticalAlign=top;align=center;spacingTop=8;spacingLeft=2;spacingRight=12;shape=cube;size=10;direction=south;fontStyle=4;html=1;whiteSpace=wrap;fillColor=#54AFFF;strokeColor=#00ff00;" parent="jvcADhcVPLt3B4X78LWL-1" vertex="1">
          <mxGeometry x="154.75" y="432.5" width="210" height="150" as="geometry" />
        </mxCell>
        <mxCell id="yi7BQN3zshPx02qinX9N-11" value="&lt;font style=&quot;vertical-align: inherit;&quot;&gt;&lt;font style=&quot;vertical-align: inherit;&quot;&gt;Interface réseau&lt;/font&gt;&lt;/font&gt;" style="verticalAlign=top;align=center;spacingTop=8;spacingLeft=2;spacingRight=12;shape=cube;size=10;direction=south;fontStyle=5;html=1;whiteSpace=wrap;strokeColor=#00ff00;" parent="jvcADhcVPLt3B4X78LWL-1" vertex="1">
          <mxGeometry x="160" y="487.5000000000001" width="174.75" height="75" as="geometry" />
        </mxCell>
        <mxCell id="yi7BQN3zshPx02qinX9N-12" value="&lt;span style=&quot;font-size: 14px; text-align: center;&quot;&gt;&lt;span style=&quot;line-height: 14.98px; font-family: Aptos, sans-serif;&quot;&gt;G3/0/21&lt;/span&gt;&lt;/span&gt;" style="html=1;whiteSpace=wrap;fontStyle=1;align=left;strokeColor=#00FF00;" parent="jvcADhcVPLt3B4X78LWL-1" vertex="1">
          <mxGeometry x="184.75" y="522.5000000000001" width="60" height="27.5" as="geometry" />
        </mxCell>
        <mxCell id="yi7BQN3zshPx02qinX9N-13" value="&lt;span style=&quot;font-size: 14px; text-align: center;&quot;&gt;&lt;span style=&quot;line-height: 14.98px; font-family: Aptos, sans-serif;&quot;&gt;G3/0/22&lt;/span&gt;&lt;/span&gt;" style="html=1;whiteSpace=wrap;fontStyle=1;align=left;strokeColor=#00FF00;" parent="jvcADhcVPLt3B4X78LWL-1" vertex="1">
          <mxGeometry x="254.75" y="523.7500000000001" width="58" height="27.5" as="geometry" />
        </mxCell>
        <mxCell id="yi7BQN3zshPx02qinX9N-14" value="&lt;span style=&quot;font-family: Aptos, sans-serif; font-size: 14px; text-align: center;&quot;&gt;Interface Web&lt;/span&gt;" style="html=1;whiteSpace=wrap;fontStyle=1;align=left;strokeColor=#00FF00;" parent="jvcADhcVPLt3B4X78LWL-1" vertex="1">
          <mxGeometry x="174.75" y="343.58" width="170" height="52.5" as="geometry" />
        </mxCell>
        <mxCell id="yi7BQN3zshPx02qinX9N-15" value="" style="shape=image;verticalLabelPosition=bottom;labelBackgroundColor=default;verticalAlign=top;aspect=fixed;imageAspect=0;image=data:image/png,iVBORw0KGgoAAAANSUhEUgAAAEQAAAA8CAYAAADfYhweAAAMP2lDQ1BJQ0MgUHJvZmlsZQAASImVVwdYU8kWnltSIbQAAlJCb4KIlABSQmihdwRRCUmAUGIMBBU7uqjg2sUCNnRVRMEKiAVF7CyKvS8WFJR1sWBX3qSArvvK9+b75s5//znznzPnztx7BwD1E1yxOBfVACBPVCCJDfZnjE1OYZC6AQmQAQUYAJzLyxezoqPDASyD7d/LuxsAkbVXHWRa/+z/r0WTL8jnAYBEQ5zOz+flQXwQALySJ5YUAECU8eZTCsQyDCvQlsAAIV4ow5kKXCnD6Qq8V24TH8uGuBUAsiqXK8kEQO0y5BmFvEyoodYHsZOILxQBoM6A2CcvbxIf4jSIbaCNGGKZPjP9B53Mv2mmD2lyuZlDWDEXeSEHCPPFudxp/2c6/nfJy5UO+rCCVTVLEhIrmzPM262cSWEyrApxryg9MgpiLYg/CPlye4hRapY0JEFhjxry8tkwZ0AXYic+NyAMYkOIg0S5keFKPj1DGMSBGK4QdKqwgBMPsR7ECwX5gXFKm82SSbFKX2h9hoTNUvLnuBK5X5mvB9KcBJZS/3WWgKPUx9SKsuKTIKZCbFEoTIyEWA1ix/ycuDClzZiiLHbkoI1EGiuL3wLiWIEo2F+hjxVmSIJilfalefmD88U2Zwk5kUq8vyArPkSRH6yVx5XHD+eCXRaIWAmDOoL8seGDc+ELAgIVc8e6BaKEOKXOB3GBf6xiLE4V50Yr7XEzQW6wjDeD2CW/ME45Fk8sgAtSoY9niAui4xVx4kXZ3NBoRTz4MhAO2CAAMIAU1nQwCWQDYXtvQy+8U/QEAS6QgEwgAA5KZnBEkrxHBK9xoAj8CZEA5A+N85f3CkAh5L8OsYqrA8iQ9xbKR+SApxDngTCQC++l8lGiIW+J4AlkhP/wzoWVB+PNhVXW/+/5QfY7w4JMuJKRDnpkqA9aEgOJAcQQYhDRFjfAfXAvPBxe/WB1xpm4x+A8vtsTnhI6CI8I1wmdhNsThcWSn6KMAJ1QP0iZi/Qfc4FbQU1X3B/3hupQGdfFDYAD7gL9sHBf6NkVsmxl3LKsMH7S/tsMfngaSjuKEwWlDKP4UWx+Hqlmp+Y6pCLL9Y/5UcSaPpRv9lDPz/7ZP2SfD9uwny2xhdgB7Cx2EjuPHcUaAANrxhqxNuyYDA+trify1TXoLVYeTw7UEf7D3+CTlWUy36nGqcfpi6KvQDBV9o4G7EniaRJhZlYBgwW/CAIGR8RzHMFwdnJ2AUD2fVG8vt7EyL8biG7bd27eHwB4Nw8MDBz5zoU2A7DPHW7/w985Gyb8dKgAcO4wTyopVHC47EKAbwl1uNP0gTEwBzZwPs7ADXgBPxAIQkEUiAfJYAKMPguucwmYAmaAuaAElIFlYDVYDzaBrWAn2AP2gwZwFJwEZ8BFcBlcB3fh6ukCL0AfeAc+IwhCQmgIHdFHTBBLxB5xRpiIDxKIhCOxSDKShmQiIkSKzEDmIWXICmQ9sgWpRvYhh5GTyHmkA7mNPER6kNfIJxRDVVFt1Ai1QkeiTJSFhqHx6Hg0E52MFqHz0SXoWrQK3Y3WoyfRi+h1tBN9gfZjAFPBdDFTzAFjYmwsCkvBMjAJNgsrxcqxKqwWa4LP+SrWifViH3EiTscZuANcwSF4As7DJ+Oz8MX4enwnXo+34lfxh3gf/o1AIxgS7AmeBA5hLCGTMIVQQignbCccIpyGe6mL8I5IJOoSrYnucC8mE7OJ04mLiRuIdcQTxA7iY2I/iUTSJ9mTvElRJC6pgFRCWkfaTWomXSF1kT6QVcgmZGdyEDmFLCIXk8vJu8jHyVfIz8ifKRoUS4onJYrCp0yjLKVsozRRLlG6KJ+pmlRrqjc1nppNnUtdS62lnqbeo75RUVExU/FQiVERqsxRWauyV+WcykOVj6paqnaqbNVUVanqEtUdqidUb6u+odFoVjQ/WgqtgLaEVk07RXtA+6BGV3NU46jx1WarVajVq11Re6lOUbdUZ6lPUC9SL1c/oH5JvVeDomGlwdbgaszSqNA4rHFTo1+TrjlKM0ozT3Ox5i7N85rdWiQtK61ALb7WfK2tWqe0HtMxujmdTefR59G30U/Tu7SJ2tbaHO1s7TLtPdrt2n06WjouOok6U3UqdI7pdOpiula6HN1c3aW6+3Vv6H4aZjSMNUwwbNGw2mFXhr3XG67npyfQK9Wr07uu90mfoR+on6O/XL9B/74BbmBnEGMwxWCjwWmD3uHaw72G84aXDt8//I4hamhnGGs43XCrYZthv5GxUbCR2Gid0SmjXmNdYz/jbONVxseNe0zoJj4mQpNVJs0mzxk6DBYjl7GW0croMzU0DTGVmm4xbTf9bGZtlmBWbFZndt+cas40zzBfZd5i3mdhYhFhMcOixuKOJcWSaZllucbyrOV7K2urJKsFVg1W3dZ61hzrIusa63s2NBtfm8k2VTbXbIm2TNsc2w22l+1QO1e7LLsKu0v2qL2bvdB+g33HCMIIjxGiEVUjbjqoOrAcCh1qHB466jqGOxY7Nji+HGkxMmXk8pFnR35zcnXKddrmdHeU1qjQUcWjmka9drZz5jlXOF8bTRsdNHr26MbRr1zsXQQuG11uudJdI1wXuLa4fnVzd5O41br1uFu4p7lXut9kajOjmYuZ5zwIHv4esz2Oenz0dPMs8Nzv+ZeXg1eO1y6v7jHWYwRjto157G3mzfXe4t3pw/BJ89ns0+lr6sv1rfJ95Gfux/fb7veMZcvKZu1mvfR38pf4H/J/z/Zkz2SfCMACggNKA9oDtQITAtcHPggyC8oMqgnqC3YNnh58IoQQEhayPOQmx4jD41Rz+kLdQ2eGtoaphsWFrQ97FG4XLglvikAjQiNWRtyLtIwURTZEgShO1Mqo+9HW0ZOjj8QQY6JjKmKexo6KnRF7No4eNzFuV9y7eP/4pfF3E2wSpAktieqJqYnVie+TApJWJHWOHTl25tiLyQbJwuTGFFJKYsr2lP5xgeNWj+tKdU0tSb0x3nr81PHnJxhMyJ1wbKL6RO7EA2mEtKS0XWlfuFHcKm5/Oie9Mr2Px+at4b3g+/FX8XsE3oIVgmcZ3hkrMrozvTNXZvZk+WaVZ/UK2cL1wlfZIdmbst/nROXsyBnITcqtyyPnpeUdFmmJckStk4wnTZ3UIbYXl4g7J3tOXj25TxIm2Z6P5I/PbyzQhj/ybVIb6S/Sh4U+hRWFH6YkTjkwVXOqaGrbNLtpi6Y9Kwoq+m06Pp03vWWG6Yy5Mx7OZM3cMguZlT6rZbb57Pmzu+YEz9k5lzo3Z+7vxU7FK4rfzkua1zTfaP6c+Y9/Cf6lpkStRFJyc4HXgk0L8YXChe2LRi9at+hbKb/0QplTWXnZl8W8xRd+HfXr2l8HlmQsaV/qtnTjMuIy0bIby32X71yhuaJoxeOVESvrVzFWla56u3ri6vPlLuWb1lDXSNd0rg1f27jOYt2ydV/WZ62/XuFfUVdpWLmo8v0G/oYrG/021m4y2lS26dNm4eZbW4K31FdZVZVvJW4t3Pp0W+K2s78xf6vebrC9bPvXHaIdnTtjd7ZWu1dX7zLctbQGrZHW9OxO3X15T8CexlqH2i11unVle8Fe6d7n+9L23dgftr/lAPNA7UHLg5WH6IdK65H6afV9DVkNnY3JjR2HQw+3NHk1HTrieGTHUdOjFcd0ji09Tj0+//hAc1Fz/wnxid6TmScft0xsuXtq7KlrrTGt7afDTp87E3Tm1FnW2eZz3ueOnvc8f/gC80LDRbeL9W2ubYd+d/39ULtbe/0l90uNlz0uN3WM6Th+xffKyasBV89c41y7eD3yeseNhBu3bqbe7LzFv9V9O/f2qzuFdz7fnXOPcK/0vsb98geGD6r+sP2jrtOt89jDgIdtj+Ie3X3Me/ziSf6TL13zn9Kelj8zeVbd7dx9tCeo5/Lzcc+7XohffO4t+VPzz8qXNi8P/uX3V1vf2L6uV5JXA68Xv9F/s+Oty9uW/uj+B+/y3n1+X/pB/8POj8yPZz8lfXr2ecoX0pe1X22/Nn0L+3ZvIG9gQMyVcOW/AhisaEYGAK93AEBLBoAOz2fUcYrzn7wgijOrHIH/hBVnRHlxA6AW/r/H9MK/m5sA7N0Gj19QXz0VgGgaAPEeAB09eqgOntXk50pZIcJzwOb4r+l56eDfFMWZ84e4f26BTNUF/Nz+C9nzfEbVa0KNAAAAlmVYSWZNTQAqAAAACAAFARIAAwAAAAEAAQAAARoABQAAAAEAAABKARsABQAAAAEAAABSASgAAwAAAAEAAgAAh2kABAAAAAEAAABaAAAAAAAAAJAAAAABAAAAkAAAAAEAA5KGAAcAAAASAAAAhKACAAQAAAABAAAARKADAAQAAAABAAAAPAAAAABBU0NJSQAAAFNjcmVlbnNob3QEKSxcAAAACXBIWXMAABYlAAAWJQFJUiTwAAAC2WlUWHRYTUw6Y29tLmFkb2JlLnhtcAAAAAAAPHg6eG1wbWV0YSB4bWxuczp4PSJhZG9iZTpuczptZXRhLyIgeDp4bXB0az0iWE1QIENvcmUgNi4wLjAiPgogICA8cmRmOlJERiB4bWxuczpyZGY9Imh0dHA6Ly93d3cudzMub3JnLzE5OTkvMDIvMjItcmRmLXN5bnRheC1ucyMiPgogICAgICA8cmRmOkRlc2NyaXB0aW9uIHJkZjphYm91dD0iIgogICAgICAgICAgICB4bWxuczpleGlmPSJodHRwOi8vbnMuYWRvYmUuY29tL2V4aWYvMS4wLyIKICAgICAgICAgICAgeG1sbnM6dGlmZj0iaHR0cDovL25zLmFkb2JlLmNvbS90aWZmLzEuMC8iPgogICAgICAgICA8ZXhpZjpVc2VyQ29tbWVudD5TY3JlZW5zaG90PC9leGlmOlVzZXJDb21tZW50PgogICAgICAgICA8ZXhpZjpQaXhlbFhEaW1lbnNpb24+Njg8L2V4aWY6UGl4ZWxYRGltZW5zaW9uPgogICAgICAgICA8ZXhpZjpQaXhlbFlEaW1lbnNpb24+NjA8L2V4aWY6UGl4ZWxZRGltZW5zaW9uPgogICAgICAgICA8dGlmZjpSZXNvbHV0aW9uVW5pdD4yPC90aWZmOlJlc29sdXRpb25Vbml0PgogICAgICAgICA8dGlmZjpYUmVzb2x1dGlvbj4xNDQvMTwvdGlmZjpYUmVzb2x1dGlvbj4KICAgICAgICAgPHRpZmY6WVJlc29sdXRpb24+MTQ0LzE8L3RpZmY6WVJlc29sdXRpb24+CiAgICAgICAgIDx0aWZmOk9yaWVudGF0aW9uPjE8L3RpZmY6T3JpZW50YXRpb24+CiAgICAgIDwvcmRmOkRlc2NyaXB0aW9uPgogICA8L3JkZjpSREY+CjwveDp4bXBtZXRhPgrInBAqAAAGNklEQVRoBe3aC0/cOhCG4UCXUuiFwv//fUjcWmjpDQqcPpa+yOtmEalO2aTakUZOso4z83o8ngS27u/vH7qN9AS2+6PNQSGwAdIEwqI5f/T04eGh+7XEit7d3ZW+W1tbXfTRm9f4I7uJlq3b29u9tmaNAvLz58/u69evvRpssVh0Ozs7pW0Hn8I5CCYvyta9vb1eWxtHA7m+vu4+fPhQFO1Xr151u7u7pW0Hn8K5iL69vS16c3PT7e/vdwcHByVC2M6HWv4IyPn5eXd8fFwGff36dRetB57Kscj48eNH9/3799K+ffu2QAADmFZGAUn4Ie4hL168KNFhFlrS7YPWeQ4Km0ERzZY+m4dkFBDJKGvwzZs3JW+g/O7du0HaQw987mtAyHNsN6GA8MFkDskoIKLAYMINkJcvXxYQoLx//35o/LVfE8nsTnSzOYCGjBsFpI0QYEQHGIeHh0Pjr/0aICTLJhHClyFZWEs6p0WSaHOcG799+9bZZT5//lxa4Zjc0a5JDzQb0VUhmrH/VitfeDZlE2Vz7G6fuwDDdhTlWHQISLZcrdBTl4B0dXW1NDYDklu06wKyZNQTTkqEgGH2KaIgJWrqMTgPxMXFRWnRBiOFTt1XZBgXCHu/UJ2D9BEChqUACLUcQKlFn48fPxYFRgRxNMui7us6YGqUo6Oj+qdJHy84lfwBhLXFmaEqzkzbZVLt8cx5ynf7fHTSXj9iXNllAElUAAEI5Wwt+phxu4poIZZE9PLysqPGE2FzlJURosQVCbUEHDCU1Fnb0tFHrpk1kHrZWDIiQ6JUfI0Ry+XTp0+/RdaYMdbdd7g6WbdVa3z+BkgDfwOkAbKQMyRGO4Xt07nEmGKt7i/XpGhLjaJ/xkgy1c94Sbj1GFM/XjAaCDuEROocDBVoXozihJ3Fdht13b1R5TsoxHiSMzCAzUVKhHBI3ZGtUpvj2hGAOB3lKMfdq3UPmCLENePODkgbIZyOtlDM/tnZWa/uVcjlXSZVKxAAafWZVYTUQMys8yiHapFbAEg1a/bzPVWbZZI6RnGnr35zkT6HMLiGw5EkzjhjGYACnFkHjNNR5xQAcBR2omdWQOJYDYPT0cDQghQYcdrnw2giKy0oIM4KSIyvHV91bLYJB6lznw6jq+6b0/XyPSS1hW1VBNRaO5PvIb6F+C4iAiRgyda3lFqAFlHRNh/Vfad03H8xy86SpZK2NhYQMKKiJDC89tcCgM8ENLml/n2qx0tfzDgnSkSMFpRa/A6GT4hUFIgMS0ck1CJ6jAHG2LfmepznPi4Rot7w6v7ly5el0rwFkq9hii/3WFr6cFyEOc61bL0SbrtbPbeTY5732wcis56dwXEtag2/mXGJlPN1MSaCqKXltznKEhCzLvw5rRX2tYiEwBAtRB4BTpvcIiJEzBxlCQiH1SXywdAnRLPOWUsjy0D/qHxhDEtvtkDMYtY9RzlntkWHKBkjXvqy3MbcN6W+y0liSpatyZYNkAb8BkgDpHwgkjNsn/KGHCIx2jod1yKR+o3mW4kdJupPEJJptuPsQPUYUz/uX/+TRDnHWZ8Qs7XGCdfVGXYRLWApywFVtfoNEOO5BkoLNuNNsV0CYrvlDMdVo3adWgDyzuLFTstRu0pUBGU7BgQsgGcLBABOC/u0NRCzf3p6WvTk5KQ4a2v2J88UdEAAFCCzi5CEPSeIGTWzHJIrask1UQCefsp51avWEomKNm+6QIEyF+mXDIPB4BA4HEn4xxnXs4yA1Nd/B6lq819CnE9eAWm2QAKDw1H5pJa84uvLcYDyH4ha14GiGQ80gOYi/bb7lLDmWLZd0QOIt15LQ7tKAnjV73/zOjuzxE1wdNUzR02dwQCxA0m6HgSSaJiqsFUJoa6ye7L3sQkaDQQEAwOiDQzXpygmUM3EXnAsYUDadBDb/whIIkSuMHAgZdAptWxjLzWBzv83IADINdmJOJ4ls4r4uuHUNjtOfZTIbu0bFSFgKMIk0AwITrQdfArnJkpEiAyqDFAOADMko4CIBkCQNjABBqin7FJDBjzHtSwRbaIbEH60svWr03Kx0faozkPbwJQYdGjg6rbJHLKfrSYxbWvcKCDtzf/i+XQLiDXR3gBpwG+ANED+A8I8opteDCP0AAAAAElFTkSuQmCC;movable=1;resizable=1;rotatable=1;deletable=1;editable=1;locked=0;connectable=1;container=0;" parent="jvcADhcVPLt3B4X78LWL-1" vertex="1">
          <mxGeometry x="304.74999999999994" y="356.33" width="27" height="27" as="geometry" />
        </mxCell>
        <mxCell id="yi7BQN3zshPx02qinX9N-78" style="edgeStyle=orthogonalEdgeStyle;rounded=0;orthogonalLoop=1;jettySize=auto;html=1;exitX=0;exitY=0;exitDx=120;exitDy=165;exitPerimeter=0;entryX=1;entryY=0.5;entryDx=0;entryDy=0;" parent="jvcADhcVPLt3B4X78LWL-1" source="yi7BQN3zshPx02qinX9N-19" target="yi7BQN3zshPx02qinX9N-28" edge="1">
          <mxGeometry relative="1" as="geometry" />
        </mxCell>
        <mxCell id="yi7BQN3zshPx02qinX9N-19" value="&lt;span style=&quot;font-size: 15px;&quot;&gt;&lt;b&gt;Switch (10.129.253.119/16)&lt;/b&gt;&lt;/span&gt;" style="verticalAlign=top;align=center;spacingTop=8;spacingLeft=2;spacingRight=12;shape=cube;size=10;direction=south;fontStyle=4;html=1;whiteSpace=wrap;fillColor=#54AFFF;strokeColor=#00ff00;" parent="jvcADhcVPLt3B4X78LWL-1" vertex="1">
          <mxGeometry x="721.99" y="410.23000000000013" width="320" height="120" as="geometry" />
        </mxCell>
        <mxCell id="yi7BQN3zshPx02qinX9N-20" value="&lt;font style=&quot;vertical-align: inherit;&quot;&gt;&lt;font style=&quot;vertical-align: inherit;&quot;&gt;Interface réseau&lt;/font&gt;&lt;/font&gt;" style="verticalAlign=top;align=center;spacingTop=8;spacingLeft=2;spacingRight=12;shape=cube;size=10;direction=south;fontStyle=5;html=1;whiteSpace=wrap;strokeColor=#00ff00;" parent="jvcADhcVPLt3B4X78LWL-1" vertex="1">
          <mxGeometry x="727.24" y="445.23000000000013" width="294.75" height="75" as="geometry" />
        </mxCell>
        <mxCell id="yi7BQN3zshPx02qinX9N-25" style="edgeStyle=orthogonalEdgeStyle;rounded=0;orthogonalLoop=1;jettySize=auto;html=1;exitX=0.25;exitY=0;exitDx=0;exitDy=0;entryX=0;entryY=0.25;entryDx=0;entryDy=0;" parent="jvcADhcVPLt3B4X78LWL-1" source="yi7BQN3zshPx02qinX9N-21" target="yi7BQN3zshPx02qinX9N-8" edge="1">
          <mxGeometry relative="1" as="geometry" />
        </mxCell>
        <mxCell id="yi7BQN3zshPx02qinX9N-21" value="&lt;span style=&quot;font-size: 14px; text-align: center;&quot;&gt;&lt;span style=&quot;line-height: 14.98px; font-family: Aptos, sans-serif;&quot;&gt;G1/0/2 (VLAN 511)&lt;/span&gt;&lt;/span&gt;" style="html=1;whiteSpace=wrap;fontStyle=1;align=left;strokeColor=#00FF00;" parent="jvcADhcVPLt3B4X78LWL-1" vertex="1">
          <mxGeometry x="741.99" y="483.98000000000013" width="130" height="26.25" as="geometry" />
        </mxCell>
        <mxCell id="yi7BQN3zshPx02qinX9N-27" style="edgeStyle=orthogonalEdgeStyle;rounded=0;orthogonalLoop=1;jettySize=auto;html=1;exitX=0.75;exitY=0;exitDx=0;exitDy=0;entryX=1;entryY=0.25;entryDx=0;entryDy=0;" parent="jvcADhcVPLt3B4X78LWL-1" source="yi7BQN3zshPx02qinX9N-22" target="yi7BQN3zshPx02qinX9N-9" edge="1">
          <mxGeometry relative="1" as="geometry" />
        </mxCell>
        <mxCell id="yi7BQN3zshPx02qinX9N-22" value="&lt;span style=&quot;font-size: 14px; text-align: center;&quot;&gt;&lt;span style=&quot;line-height: 14.98px; font-family: Aptos, sans-serif;&quot;&gt;G1/0/10 (VLAN 1)&lt;/span&gt;&lt;/span&gt;" style="html=1;whiteSpace=wrap;fontStyle=1;align=left;strokeColor=#00FF00;" parent="jvcADhcVPLt3B4X78LWL-1" vertex="1">
          <mxGeometry x="881.99" y="481.48000000000013" width="120" height="28.75" as="geometry" />
        </mxCell>
        <mxCell id="yi7BQN3zshPx02qinX9N-28" value="&lt;b&gt;Réseaux pédagogique&lt;/b&gt;" style="ellipse;whiteSpace=wrap;html=1;fillColor=#54AFFF;" parent="jvcADhcVPLt3B4X78LWL-1" vertex="1">
          <mxGeometry x="671.99" y="570.0000000000001" width="190" height="111" as="geometry" />
        </mxCell>
        <mxCell id="yi7BQN3zshPx02qinX9N-48" style="edgeStyle=orthogonalEdgeStyle;rounded=0;orthogonalLoop=1;jettySize=auto;html=1;exitX=0;exitY=0;exitDx=146.625;exitDy=260;exitPerimeter=0;entryX=0;entryY=0.5;entryDx=0;entryDy=0;" parent="jvcADhcVPLt3B4X78LWL-1" source="jvcADhcVPLt3B4X78LWL-24" target="yi7BQN3zshPx02qinX9N-12" edge="1">
          <mxGeometry relative="1" as="geometry" />
        </mxCell>
        <mxCell id="yi7BQN3zshPx02qinX9N-50" style="edgeStyle=orthogonalEdgeStyle;rounded=0;orthogonalLoop=1;jettySize=auto;html=1;exitX=0.25;exitY=0;exitDx=0;exitDy=0;entryX=0.412;entryY=0.934;entryDx=0;entryDy=0;entryPerimeter=0;" parent="jvcADhcVPLt3B4X78LWL-1" source="FaoGSX9svCNC1m7Fcghs-36" target="yi7BQN3zshPx02qinX9N-9" edge="1">
          <mxGeometry relative="1" as="geometry" />
        </mxCell>
        <mxCell id="yi7BQN3zshPx02qinX9N-9" value="&lt;span style=&quot;font-family: Aptos, sans-serif; font-size: 14px; text-align: center;&quot;&gt;Carte réseau interne&lt;/span&gt;" style="html=1;whiteSpace=wrap;fontStyle=1;align=left;strokeColor=#00FF00;" parent="jvcADhcVPLt3B4X78LWL-1" vertex="1">
          <mxGeometry x="855.3299999999999" y="256.26" width="154.83" height="52.5" as="geometry" />
        </mxCell>
        <mxCell id="yi7BQN3zshPx02qinX9N-52" style="edgeStyle=orthogonalEdgeStyle;rounded=0;orthogonalLoop=1;jettySize=auto;html=1;exitX=1;exitY=0.75;exitDx=0;exitDy=0;entryX=1;entryY=0;entryDx=0;entryDy=0;" parent="jvcADhcVPLt3B4X78LWL-1" source="FaoGSX9svCNC1m7Fcghs-36" target="yi7BQN3zshPx02qinX9N-8" edge="1">
          <mxGeometry relative="1" as="geometry" />
        </mxCell>
        <mxCell id="yi7BQN3zshPx02qinX9N-67" style="edgeStyle=orthogonalEdgeStyle;rounded=0;orthogonalLoop=1;jettySize=auto;html=1;exitX=0;exitY=0.5;exitDx=0;exitDy=0;entryX=0.381;entryY=1;entryDx=0;entryDy=0;entryPerimeter=0;" parent="jvcADhcVPLt3B4X78LWL-1" source="yi7BQN3zshPx02qinX9N-14" target="jvcADhcVPLt3B4X78LWL-24" edge="1">
          <mxGeometry relative="1" as="geometry" />
        </mxCell>
        <mxCell id="yi7BQN3zshPx02qinX9N-73" value="&lt;b&gt;&lt;font style=&quot;font-size: 14px;&quot;&gt;Salle Serveur&lt;/font&gt;&lt;/b&gt;" style="text;html=1;align=center;verticalAlign=middle;whiteSpace=wrap;rounded=0;" parent="jvcADhcVPLt3B4X78LWL-1" vertex="1">
          <mxGeometry x="60.00000000000001" y="96.97999999999999" width="114.75" height="30" as="geometry" />
        </mxCell>
        <mxCell id="yi7BQN3zshPx02qinX9N-74" style="edgeStyle=orthogonalEdgeStyle;rounded=0;orthogonalLoop=1;jettySize=auto;html=1;exitX=0;exitY=0.5;exitDx=0;exitDy=0;entryX=0;entryY=0;entryDx=150;entryDy=110;entryPerimeter=0;" parent="jvcADhcVPLt3B4X78LWL-1" source="yi7BQN3zshPx02qinX9N-28" target="yi7BQN3zshPx02qinX9N-10" edge="1">
          <mxGeometry relative="1" as="geometry" />
        </mxCell>
        <mxCell id="yi7BQN3zshPx02qinX9N-77" value="&lt;b&gt;&lt;font style=&quot;font-size: 14px;&quot;&gt;Arrière salle bureau&lt;/font&gt;&lt;/b&gt;" style="text;html=1;align=center;verticalAlign=middle;whiteSpace=wrap;rounded=0;" parent="jvcADhcVPLt3B4X78LWL-1" vertex="1">
          <mxGeometry x="700" y="96.97999999999999" width="114.75" height="30" as="geometry" />
        </mxCell>
        <mxCell id="yi7BQN3zshPx02qinX9N-81" value="&lt;b&gt;&lt;font style=&quot;font-size: 14px;&quot;&gt;10.129.0.0/16&lt;/font&gt;&lt;/b&gt;" style="text;html=1;align=center;verticalAlign=middle;whiteSpace=wrap;rounded=0;" parent="jvcADhcVPLt3B4X78LWL-1" vertex="1">
          <mxGeometry x="60.00000000000001" y="60" width="60" height="30" as="geometry" />
        </mxCell>
        <mxCell id="ATz8TP0VACaVO4sgaq5F-2" style="edgeStyle=orthogonalEdgeStyle;rounded=0;orthogonalLoop=1;jettySize=auto;html=1;exitX=0;exitY=0;exitDx=256.74;exitDy=105;exitPerimeter=0;entryX=1;entryY=0.5;entryDx=0;entryDy=0;" edge="1" parent="jvcADhcVPLt3B4X78LWL-1" source="jvcADhcVPLt3B4X78LWL-45" target="yi7BQN3zshPx02qinX9N-13">
          <mxGeometry relative="1" as="geometry" />
        </mxCell>
        <mxCell id="ATz8TP0VACaVO4sgaq5F-4" value="" style="shape=image;verticalLabelPosition=bottom;labelBackgroundColor=default;verticalAlign=top;aspect=fixed;imageAspect=0;image=data:image/png,iVBORw0KGgoAAAANSUhEUgAAAEQAAAA8CAYAAADfYhweAAAMP2lDQ1BJQ0MgUHJvZmlsZQAASImVVwdYU8kWnltSIbQAAlJCb4KIlABSQmihdwRRCUmAUGIMBBU7uqjg2sUCNnRVRMEKiAVF7CyKvS8WFJR1sWBX3qSArvvK9+b75s5//znznzPnztx7BwD1E1yxOBfVACBPVCCJDfZnjE1OYZC6AQmQAQUYAJzLyxezoqPDASyD7d/LuxsAkbVXHWRa/+z/r0WTL8jnAYBEQ5zOz+flQXwQALySJ5YUAECU8eZTCsQyDCvQlsAAIV4ow5kKXCnD6Qq8V24TH8uGuBUAsiqXK8kEQO0y5BmFvEyoodYHsZOILxQBoM6A2CcvbxIf4jSIbaCNGGKZPjP9B53Mv2mmD2lyuZlDWDEXeSEHCPPFudxp/2c6/nfJy5UO+rCCVTVLEhIrmzPM262cSWEyrApxryg9MgpiLYg/CPlye4hRapY0JEFhjxry8tkwZ0AXYic+NyAMYkOIg0S5keFKPj1DGMSBGK4QdKqwgBMPsR7ECwX5gXFKm82SSbFKX2h9hoTNUvLnuBK5X5mvB9KcBJZS/3WWgKPUx9SKsuKTIKZCbFEoTIyEWA1ix/ycuDClzZiiLHbkoI1EGiuL3wLiWIEo2F+hjxVmSIJilfalefmD88U2Zwk5kUq8vyArPkSRH6yVx5XHD+eCXRaIWAmDOoL8seGDc+ELAgIVc8e6BaKEOKXOB3GBf6xiLE4V50Yr7XEzQW6wjDeD2CW/ME45Fk8sgAtSoY9niAui4xVx4kXZ3NBoRTz4MhAO2CAAMIAU1nQwCWQDYXtvQy+8U/QEAS6QgEwgAA5KZnBEkrxHBK9xoAj8CZEA5A+N85f3CkAh5L8OsYqrA8iQ9xbKR+SApxDngTCQC++l8lGiIW+J4AlkhP/wzoWVB+PNhVXW/+/5QfY7w4JMuJKRDnpkqA9aEgOJAcQQYhDRFjfAfXAvPBxe/WB1xpm4x+A8vtsTnhI6CI8I1wmdhNsThcWSn6KMAJ1QP0iZi/Qfc4FbQU1X3B/3hupQGdfFDYAD7gL9sHBf6NkVsmxl3LKsMH7S/tsMfngaSjuKEwWlDKP4UWx+Hqlmp+Y6pCLL9Y/5UcSaPpRv9lDPz/7ZP2SfD9uwny2xhdgB7Cx2EjuPHcUaAANrxhqxNuyYDA+trify1TXoLVYeTw7UEf7D3+CTlWUy36nGqcfpi6KvQDBV9o4G7EniaRJhZlYBgwW/CAIGR8RzHMFwdnJ2AUD2fVG8vt7EyL8biG7bd27eHwB4Nw8MDBz5zoU2A7DPHW7/w985Gyb8dKgAcO4wTyopVHC47EKAbwl1uNP0gTEwBzZwPs7ADXgBPxAIQkEUiAfJYAKMPguucwmYAmaAuaAElIFlYDVYDzaBrWAn2AP2gwZwFJwEZ8BFcBlcB3fh6ukCL0AfeAc+IwhCQmgIHdFHTBBLxB5xRpiIDxKIhCOxSDKShmQiIkSKzEDmIWXICmQ9sgWpRvYhh5GTyHmkA7mNPER6kNfIJxRDVVFt1Ai1QkeiTJSFhqHx6Hg0E52MFqHz0SXoWrQK3Y3WoyfRi+h1tBN9gfZjAFPBdDFTzAFjYmwsCkvBMjAJNgsrxcqxKqwWa4LP+SrWifViH3EiTscZuANcwSF4As7DJ+Oz8MX4enwnXo+34lfxh3gf/o1AIxgS7AmeBA5hLCGTMIVQQignbCccIpyGe6mL8I5IJOoSrYnucC8mE7OJ04mLiRuIdcQTxA7iY2I/iUTSJ9mTvElRJC6pgFRCWkfaTWomXSF1kT6QVcgmZGdyEDmFLCIXk8vJu8jHyVfIz8ifKRoUS4onJYrCp0yjLKVsozRRLlG6KJ+pmlRrqjc1nppNnUtdS62lnqbeo75RUVExU/FQiVERqsxRWauyV+WcykOVj6paqnaqbNVUVanqEtUdqidUb6u+odFoVjQ/WgqtgLaEVk07RXtA+6BGV3NU46jx1WarVajVq11Re6lOUbdUZ6lPUC9SL1c/oH5JvVeDomGlwdbgaszSqNA4rHFTo1+TrjlKM0ozT3Ox5i7N85rdWiQtK61ALb7WfK2tWqe0HtMxujmdTefR59G30U/Tu7SJ2tbaHO1s7TLtPdrt2n06WjouOok6U3UqdI7pdOpiula6HN1c3aW6+3Vv6H4aZjSMNUwwbNGw2mFXhr3XG67npyfQK9Wr07uu90mfoR+on6O/XL9B/74BbmBnEGMwxWCjwWmD3uHaw72G84aXDt8//I4hamhnGGs43XCrYZthv5GxUbCR2Gid0SmjXmNdYz/jbONVxseNe0zoJj4mQpNVJs0mzxk6DBYjl7GW0croMzU0DTGVmm4xbTf9bGZtlmBWbFZndt+cas40zzBfZd5i3mdhYhFhMcOixuKOJcWSaZllucbyrOV7K2urJKsFVg1W3dZ61hzrIusa63s2NBtfm8k2VTbXbIm2TNsc2w22l+1QO1e7LLsKu0v2qL2bvdB+g33HCMIIjxGiEVUjbjqoOrAcCh1qHB466jqGOxY7Nji+HGkxMmXk8pFnR35zcnXKddrmdHeU1qjQUcWjmka9drZz5jlXOF8bTRsdNHr26MbRr1zsXQQuG11uudJdI1wXuLa4fnVzd5O41br1uFu4p7lXut9kajOjmYuZ5zwIHv4esz2Oenz0dPMs8Nzv+ZeXg1eO1y6v7jHWYwRjto157G3mzfXe4t3pw/BJ89ns0+lr6sv1rfJ95Gfux/fb7veMZcvKZu1mvfR38pf4H/J/z/Zkz2SfCMACggNKA9oDtQITAtcHPggyC8oMqgnqC3YNnh58IoQQEhayPOQmx4jD41Rz+kLdQ2eGtoaphsWFrQ97FG4XLglvikAjQiNWRtyLtIwURTZEgShO1Mqo+9HW0ZOjj8QQY6JjKmKexo6KnRF7No4eNzFuV9y7eP/4pfF3E2wSpAktieqJqYnVie+TApJWJHWOHTl25tiLyQbJwuTGFFJKYsr2lP5xgeNWj+tKdU0tSb0x3nr81PHnJxhMyJ1wbKL6RO7EA2mEtKS0XWlfuFHcKm5/Oie9Mr2Px+at4b3g+/FX8XsE3oIVgmcZ3hkrMrozvTNXZvZk+WaVZ/UK2cL1wlfZIdmbst/nROXsyBnITcqtyyPnpeUdFmmJckStk4wnTZ3UIbYXl4g7J3tOXj25TxIm2Z6P5I/PbyzQhj/ybVIb6S/Sh4U+hRWFH6YkTjkwVXOqaGrbNLtpi6Y9Kwoq+m06Pp03vWWG6Yy5Mx7OZM3cMguZlT6rZbb57Pmzu+YEz9k5lzo3Z+7vxU7FK4rfzkua1zTfaP6c+Y9/Cf6lpkStRFJyc4HXgk0L8YXChe2LRi9at+hbKb/0QplTWXnZl8W8xRd+HfXr2l8HlmQsaV/qtnTjMuIy0bIby32X71yhuaJoxeOVESvrVzFWla56u3ri6vPlLuWb1lDXSNd0rg1f27jOYt2ydV/WZ62/XuFfUVdpWLmo8v0G/oYrG/021m4y2lS26dNm4eZbW4K31FdZVZVvJW4t3Pp0W+K2s78xf6vebrC9bPvXHaIdnTtjd7ZWu1dX7zLctbQGrZHW9OxO3X15T8CexlqH2i11unVle8Fe6d7n+9L23dgftr/lAPNA7UHLg5WH6IdK65H6afV9DVkNnY3JjR2HQw+3NHk1HTrieGTHUdOjFcd0ji09Tj0+//hAc1Fz/wnxid6TmScft0xsuXtq7KlrrTGt7afDTp87E3Tm1FnW2eZz3ueOnvc8f/gC80LDRbeL9W2ubYd+d/39ULtbe/0l90uNlz0uN3WM6Th+xffKyasBV89c41y7eD3yeseNhBu3bqbe7LzFv9V9O/f2qzuFdz7fnXOPcK/0vsb98geGD6r+sP2jrtOt89jDgIdtj+Ie3X3Me/ziSf6TL13zn9Kelj8zeVbd7dx9tCeo5/Lzcc+7XohffO4t+VPzz8qXNi8P/uX3V1vf2L6uV5JXA68Xv9F/s+Oty9uW/uj+B+/y3n1+X/pB/8POj8yPZz8lfXr2ecoX0pe1X22/Nn0L+3ZvIG9gQMyVcOW/AhisaEYGAK93AEBLBoAOz2fUcYrzn7wgijOrHIH/hBVnRHlxA6AW/r/H9MK/m5sA7N0Gj19QXz0VgGgaAPEeAB09eqgOntXk50pZIcJzwOb4r+l56eDfFMWZ84e4f26BTNUF/Nz+C9nzfEbVa0KNAAAAlmVYSWZNTQAqAAAACAAFARIAAwAAAAEAAQAAARoABQAAAAEAAABKARsABQAAAAEAAABSASgAAwAAAAEAAgAAh2kABAAAAAEAAABaAAAAAAAAAJAAAAABAAAAkAAAAAEAA5KGAAcAAAASAAAAhKACAAQAAAABAAAARKADAAQAAAABAAAAPAAAAABBU0NJSQAAAFNjcmVlbnNob3QEKSxcAAAACXBIWXMAABYlAAAWJQFJUiTwAAAC2WlUWHRYTUw6Y29tLmFkb2JlLnhtcAAAAAAAPHg6eG1wbWV0YSB4bWxuczp4PSJhZG9iZTpuczptZXRhLyIgeDp4bXB0az0iWE1QIENvcmUgNi4wLjAiPgogICA8cmRmOlJERiB4bWxuczpyZGY9Imh0dHA6Ly93d3cudzMub3JnLzE5OTkvMDIvMjItcmRmLXN5bnRheC1ucyMiPgogICAgICA8cmRmOkRlc2NyaXB0aW9uIHJkZjphYm91dD0iIgogICAgICAgICAgICB4bWxuczpleGlmPSJodHRwOi8vbnMuYWRvYmUuY29tL2V4aWYvMS4wLyIKICAgICAgICAgICAgeG1sbnM6dGlmZj0iaHR0cDovL25zLmFkb2JlLmNvbS90aWZmLzEuMC8iPgogICAgICAgICA8ZXhpZjpVc2VyQ29tbWVudD5TY3JlZW5zaG90PC9leGlmOlVzZXJDb21tZW50PgogICAgICAgICA8ZXhpZjpQaXhlbFhEaW1lbnNpb24+Njg8L2V4aWY6UGl4ZWxYRGltZW5zaW9uPgogICAgICAgICA8ZXhpZjpQaXhlbFlEaW1lbnNpb24+NjA8L2V4aWY6UGl4ZWxZRGltZW5zaW9uPgogICAgICAgICA8dGlmZjpSZXNvbHV0aW9uVW5pdD4yPC90aWZmOlJlc29sdXRpb25Vbml0PgogICAgICAgICA8dGlmZjpYUmVzb2x1dGlvbj4xNDQvMTwvdGlmZjpYUmVzb2x1dGlvbj4KICAgICAgICAgPHRpZmY6WVJlc29sdXRpb24+MTQ0LzE8L3RpZmY6WVJlc29sdXRpb24+CiAgICAgICAgIDx0aWZmOk9yaWVudGF0aW9uPjE8L3RpZmY6T3JpZW50YXRpb24+CiAgICAgIDwvcmRmOkRlc2NyaXB0aW9uPgogICA8L3JkZjpSREY+CjwveDp4bXBtZXRhPgrInBAqAAAGNklEQVRoBe3aC0/cOhCG4UCXUuiFwv//fUjcWmjpDQqcPpa+yOtmEalO2aTakUZOso4z83o8ngS27u/vH7qN9AS2+6PNQSGwAdIEwqI5f/T04eGh+7XEit7d3ZW+W1tbXfTRm9f4I7uJlq3b29u9tmaNAvLz58/u69evvRpssVh0Ozs7pW0Hn8I5CCYvyta9vb1eWxtHA7m+vu4+fPhQFO1Xr151u7u7pW0Hn8K5iL69vS16c3PT7e/vdwcHByVC2M6HWv4IyPn5eXd8fFwGff36dRetB57Kscj48eNH9/3799K+ffu2QAADmFZGAUn4Ie4hL168KNFhFlrS7YPWeQ4Km0ERzZY+m4dkFBDJKGvwzZs3JW+g/O7du0HaQw987mtAyHNsN6GA8MFkDskoIKLAYMINkJcvXxYQoLx//35o/LVfE8nsTnSzOYCGjBsFpI0QYEQHGIeHh0Pjr/0aICTLJhHClyFZWEs6p0WSaHOcG799+9bZZT5//lxa4Zjc0a5JDzQb0VUhmrH/VitfeDZlE2Vz7G6fuwDDdhTlWHQISLZcrdBTl4B0dXW1NDYDklu06wKyZNQTTkqEgGH2KaIgJWrqMTgPxMXFRWnRBiOFTt1XZBgXCHu/UJ2D9BEChqUACLUcQKlFn48fPxYFRgRxNMui7us6YGqUo6Oj+qdJHy84lfwBhLXFmaEqzkzbZVLt8cx5ynf7fHTSXj9iXNllAElUAAEI5Wwt+phxu4poIZZE9PLysqPGE2FzlJURosQVCbUEHDCU1Fnb0tFHrpk1kHrZWDIiQ6JUfI0Ry+XTp0+/RdaYMdbdd7g6WbdVa3z+BkgDfwOkAbKQMyRGO4Xt07nEmGKt7i/XpGhLjaJ/xkgy1c94Sbj1GFM/XjAaCDuEROocDBVoXozihJ3Fdht13b1R5TsoxHiSMzCAzUVKhHBI3ZGtUpvj2hGAOB3lKMfdq3UPmCLENePODkgbIZyOtlDM/tnZWa/uVcjlXSZVKxAAafWZVYTUQMys8yiHapFbAEg1a/bzPVWbZZI6RnGnr35zkT6HMLiGw5EkzjhjGYACnFkHjNNR5xQAcBR2omdWQOJYDYPT0cDQghQYcdrnw2giKy0oIM4KSIyvHV91bLYJB6lznw6jq+6b0/XyPSS1hW1VBNRaO5PvIb6F+C4iAiRgyda3lFqAFlHRNh/Vfad03H8xy86SpZK2NhYQMKKiJDC89tcCgM8ENLml/n2qx0tfzDgnSkSMFpRa/A6GT4hUFIgMS0ck1CJ6jAHG2LfmepznPi4Rot7w6v7ly5el0rwFkq9hii/3WFr6cFyEOc61bL0SbrtbPbeTY5732wcis56dwXEtag2/mXGJlPN1MSaCqKXltznKEhCzLvw5rRX2tYiEwBAtRB4BTpvcIiJEzBxlCQiH1SXywdAnRLPOWUsjy0D/qHxhDEtvtkDMYtY9RzlntkWHKBkjXvqy3MbcN6W+y0liSpatyZYNkAb8BkgDpHwgkjNsn/KGHCIx2jod1yKR+o3mW4kdJupPEJJptuPsQPUYUz/uX/+TRDnHWZ8Qs7XGCdfVGXYRLWApywFVtfoNEOO5BkoLNuNNsV0CYrvlDMdVo3adWgDyzuLFTstRu0pUBGU7BgQsgGcLBABOC/u0NRCzf3p6WvTk5KQ4a2v2J88UdEAAFCCzi5CEPSeIGTWzHJIrask1UQCefsp51avWEomKNm+6QIEyF+mXDIPB4BA4HEn4xxnXs4yA1Nd/B6lq819CnE9eAWm2QAKDw1H5pJa84uvLcYDyH4ha14GiGQ80gOYi/bb7lLDmWLZd0QOIt15LQ7tKAnjV73/zOjuzxE1wdNUzR02dwQCxA0m6HgSSaJiqsFUJoa6ye7L3sQkaDQQEAwOiDQzXpygmUM3EXnAsYUDadBDb/whIIkSuMHAgZdAptWxjLzWBzv83IADINdmJOJ4ls4r4uuHUNjtOfZTIbu0bFSFgKMIk0AwITrQdfArnJkpEiAyqDFAOADMko4CIBkCQNjABBqin7FJDBjzHtSwRbaIbEH60svWr03Kx0faozkPbwJQYdGjg6rbJHLKfrSYxbWvcKCDtzf/i+XQLiDXR3gBpwG+ANED+A8I8opteDCP0AAAAAElFTkSuQmCC;movable=1;resizable=1;rotatable=1;deletable=1;editable=1;locked=0;connectable=1;container=0;" vertex="1" parent="jvcADhcVPLt3B4X78LWL-1">
          <mxGeometry x="304.75" y="220.63000000000002" width="27" height="27" as="geometry" />
        </mxCell>
      </root>
    </mxGraphModel>
  </diagram>
</mxfile>
